<svg xmlns="http://www.w3.org/2000/svg" version="1.1" xmlns:xlink="http://www.w3.org/1999/xlink" xmlns:svgjs="http://svgjs.dev/svgjs" width="1440" height="3000" preserveAspectRatio="none" viewBox="0 0 1440 3000"><g mask="url(&quot;#SvgjsMask1493&quot;)" fill="none"><rect width="1440" height="3000" x="0" y="0" fill="#0e2a47"></rect><path d="M46.28 -69.35L115.56 -29.35L115.56 50.65L46.28 90.65L-23 50.65L-23 -29.35zM115.56 290.65L184.85 330.65L184.85 410.65L115.56 450.65L46.28 410.65L46.28 330.65zM46.28 650.65L115.56 690.65L115.56 770.65L46.28 810.65L-23 770.65L-23 690.65zM115.56 770.65L184.85 810.65L184.85 890.65L115.56 930.65L46.28 890.65L46.28 810.65zM115.56 1010.65L184.85 1050.65L184.85 1130.65L115.56 1170.65L46.28 1130.65L46.28 1050.65zM115.56 1250.65L184.85 1290.65L184.85 1370.65L115.56 1410.65L46.28 1370.65L46.28 1290.65zM115.56 1490.65L184.85 1530.65L184.85 1610.65L115.56 1650.65L46.28 1610.65L46.28 1530.65zM46.28 1850.65L115.56 1890.65L115.56 1970.65L46.28 2010.65L-23 1970.65L-23 1890.65zM46.28 2330.65L115.56 2370.65L115.56 2450.65L46.28 2490.65L-23 2450.65L-23 2370.65zM184.85 -69.35L254.13 -29.35L254.13 50.65L184.85 90.65L115.56 50.65L115.56 -29.35zM254.13 530.65L323.42 570.65L323.42 650.65L254.13 690.65L184.85 650.65L184.85 570.65zM184.85 890.65L254.13 930.65L254.13 1010.65L184.85 1050.65L115.56 1010.65L115.56 930.65zM254.13 1010.65L323.42 1050.65L323.42 1130.65L254.13 1170.65L184.85 1130.65L184.85 1050.65zM254.13 1490.65L323.42 1530.65L323.42 1610.65L254.13 1650.65L184.85 1610.65L184.85 1530.65zM184.85 1850.65L254.13 1890.65L254.13 1970.65L184.85 2010.65L115.56 1970.65L115.56 1890.65zM184.85 2090.65L254.13 2130.65L254.13 2210.65L184.85 2250.65L115.56 2210.65L115.56 2130.65zM254.13 2210.65L323.42 2250.65L323.42 2330.65L254.13 2370.65L184.85 2330.65L184.85 2250.65zM184.85 2330.65L254.13 2370.65L254.13 2450.65L184.85 2490.65L115.56 2450.65L115.56 2370.65zM254.13 2450.65L323.42 2490.65L323.42 2570.65L254.13 2610.65L184.85 2570.65L184.85 2490.65zM184.85 2570.65L254.13 2610.65L254.13 2690.65L184.85 2730.65L115.56 2690.65L115.56 2610.65zM184.85 2810.65L254.13 2850.65L254.13 2930.65L184.85 2970.65L115.56 2930.65L115.56 2850.65zM392.7 50.65L461.98 90.65L461.98 170.65L392.7 210.65L323.42 170.65L323.42 90.65zM323.42 170.65L392.7 210.65L392.7 290.65L323.42 330.65L254.13 290.65L254.13 210.65zM323.42 1610.65L392.7 1650.65L392.7 1730.65L323.42 1770.65L254.13 1730.65L254.13 1650.65zM323.42 2570.65L392.7 2610.65L392.7 2690.65L323.42 2730.65L254.13 2690.65L254.13 2610.65zM531.27 50.65L600.55 90.65L600.55 170.65L531.27 210.65L461.98 170.65L461.98 90.65zM461.98 410.65L531.27 450.65L531.27 530.65L461.98 570.65L392.7 530.65L392.7 450.65zM531.27 530.65L600.55 570.65L600.55 650.65L531.27 690.65L461.98 650.65L461.98 570.65zM531.27 1010.65L600.55 1050.65L600.55 1130.65L531.27 1170.65L461.98 1130.65L461.98 1050.65zM531.27 1250.65L600.55 1290.65L600.55 1370.65L531.27 1410.65L461.98 1370.65L461.98 1290.65zM531.27 1730.65L600.55 1770.65L600.55 1850.65L531.27 1890.65L461.98 1850.65L461.98 1770.65zM461.98 2330.65L531.27 2370.65L531.27 2450.65L461.98 2490.65L392.7 2450.65L392.7 2370.65zM600.55 -69.35L669.84 -29.35L669.84 50.65L600.55 90.65L531.27 50.65L531.27 -29.35zM669.84 50.65L739.12 90.65L739.12 170.65L669.84 210.65L600.55 170.65L600.55 90.65zM669.84 290.65L739.12 330.65L739.12 410.65L669.84 450.65L600.55 410.65L600.55 330.65zM600.55 410.65L669.84 450.65L669.84 530.65L600.55 570.65L531.27 530.65L531.27 450.65zM669.84 1010.65L739.12 1050.65L739.12 1130.65L669.84 1170.65L600.55 1130.65L600.55 1050.65zM669.84 1250.65L739.12 1290.65L739.12 1370.65L669.84 1410.65L600.55 1370.65L600.55 1290.65zM669.84 1490.65L739.12 1530.65L739.12 1610.65L669.84 1650.65L600.55 1610.65L600.55 1530.65zM669.84 1730.65L739.12 1770.65L739.12 1850.65L669.84 1890.65L600.55 1850.65L600.55 1770.65zM669.84 1970.65L739.12 2010.65L739.12 2090.65L669.84 2130.65L600.55 2090.65L600.55 2010.65zM600.55 2090.65L669.84 2130.65L669.84 2210.65L600.55 2250.65L531.27 2210.65L531.27 2130.65zM669.84 2690.65L739.12 2730.65L739.12 2810.65L669.84 2850.65L600.55 2810.65L600.55 2730.65zM739.12 -69.35L808.4 -29.35L808.4 50.65L739.12 90.65L669.84 50.65L669.84 -29.35zM808.4 50.65L877.69 90.65L877.69 170.65L808.4 210.65L739.12 170.65L739.12 90.65zM739.12 170.65L808.4 210.65L808.4 290.65L739.12 330.65L669.84 290.65L669.84 210.65zM808.4 290.65L877.69 330.65L877.69 410.65L808.4 450.65L739.12 410.65L739.12 330.65zM739.12 650.65L808.4 690.65L808.4 770.65L739.12 810.65L669.84 770.65L669.84 690.65zM808.4 770.65L877.69 810.65L877.69 890.65L808.4 930.65L739.12 890.65L739.12 810.65zM808.4 1490.65L877.69 1530.65L877.69 1610.65L808.4 1650.65L739.12 1610.65L739.12 1530.65zM808.4 1730.65L877.69 1770.65L877.69 1850.65L808.4 1890.65L739.12 1850.65L739.12 1770.65zM739.12 1850.65L808.4 1890.65L808.4 1970.65L739.12 2010.65L669.84 1970.65L669.84 1890.65zM739.12 2090.65L808.4 2130.65L808.4 2210.65L739.12 2250.65L669.84 2210.65L669.84 2130.65zM739.12 2810.65L808.4 2850.65L808.4 2930.65L739.12 2970.65L669.84 2930.65L669.84 2850.65zM946.97 50.65L1016.26 90.65L1016.26 170.65L946.97 210.65L877.69 170.65L877.69 90.65zM946.97 290.65L1016.26 330.65L1016.26 410.65L946.97 450.65L877.69 410.65L877.69 330.65zM877.69 410.65L946.97 450.65L946.97 530.65L877.69 570.65L808.4 530.65L808.4 450.65zM877.69 890.65L946.97 930.65L946.97 1010.65L877.69 1050.65L808.4 1010.65L808.4 930.65zM877.69 1130.65L946.97 1170.65L946.97 1250.65L877.69 1290.65L808.4 1250.65L808.4 1170.65zM946.97 1490.65L1016.26 1530.65L1016.26 1610.65L946.97 1650.65L877.69 1610.65L877.69 1530.65zM946.97 1730.65L1016.26 1770.65L1016.26 1850.65L946.97 1890.65L877.69 1850.65L877.69 1770.65zM877.69 2090.65L946.97 2130.65L946.97 2210.65L877.69 2250.65L808.4 2210.65L808.4 2130.65zM1085.54 50.65L1154.82 90.65L1154.82 170.65L1085.54 210.65L1016.26 170.65L1016.26 90.65zM1016.26 410.65L1085.54 450.65L1085.54 530.65L1016.26 570.65L946.97 530.65L946.97 450.65zM1085.54 770.65L1154.82 810.65L1154.82 890.65L1085.54 930.65L1016.26 890.65L1016.26 810.65zM1016.26 890.65L1085.54 930.65L1085.54 1010.65L1016.26 1050.65L946.97 1010.65L946.97 930.65zM1085.54 1010.65L1154.82 1050.65L1154.82 1130.65L1085.54 1170.65L1016.26 1130.65L1016.26 1050.65zM1085.54 1490.65L1154.82 1530.65L1154.82 1610.65L1085.54 1650.65L1016.26 1610.65L1016.26 1530.65zM1016.26 1610.65L1085.54 1650.65L1085.54 1730.65L1016.26 1770.65L946.97 1730.65L946.97 1650.65zM1016.26 1850.65L1085.54 1890.65L1085.54 1970.65L1016.26 2010.65L946.97 1970.65L946.97 1890.65zM1016.26 2090.65L1085.54 2130.65L1085.54 2210.65L1016.26 2250.65L946.97 2210.65L946.97 2130.65zM1085.54 2930.65L1154.82 2970.65L1154.82 3050.65L1085.54 3090.65L1016.26 3050.65L1016.26 2970.65zM1224.11 290.65L1293.39 330.65L1293.39 410.65L1224.11 450.65L1154.82 410.65L1154.82 330.65zM1224.11 530.65L1293.39 570.65L1293.39 650.65L1224.11 690.65L1154.82 650.65L1154.82 570.65zM1224.11 770.65L1293.39 810.65L1293.39 890.65L1224.11 930.65L1154.82 890.65L1154.82 810.65zM1154.82 890.65L1224.11 930.65L1224.11 1010.65L1154.82 1050.65L1085.54 1010.65L1085.54 930.65zM1224.11 1250.65L1293.39 1290.65L1293.39 1370.65L1224.11 1410.65L1154.82 1370.65L1154.82 1290.65zM1154.82 1370.65L1224.11 1410.65L1224.11 1490.65L1154.82 1530.65L1085.54 1490.65L1085.54 1410.65zM1224.11 1490.65L1293.39 1530.65L1293.39 1610.65L1224.11 1650.65L1154.82 1610.65L1154.82 1530.65zM1154.82 1610.65L1224.11 1650.65L1224.11 1730.65L1154.82 1770.65L1085.54 1730.65L1085.54 1650.65zM1224.11 1970.65L1293.39 2010.65L1293.39 2090.65L1224.11 2130.65L1154.82 2090.65L1154.82 2010.65zM1224.11 2690.65L1293.39 2730.65L1293.39 2810.65L1224.11 2850.65L1154.82 2810.65L1154.82 2730.65zM1293.39 170.65L1362.68 210.65L1362.68 290.65L1293.39 330.65L1224.11 290.65L1224.11 210.65zM1362.68 290.65L1431.96 330.65L1431.96 410.65L1362.68 450.65L1293.39 410.65L1293.39 330.65zM1293.39 410.65L1362.68 450.65L1362.68 530.65L1293.39 570.65L1224.11 530.65L1224.11 450.65zM1362.68 530.65L1431.96 570.65L1431.96 650.65L1362.68 690.65L1293.39 650.65L1293.39 570.65zM1293.39 650.65L1362.68 690.65L1362.68 770.65L1293.39 810.65L1224.11 770.65L1224.11 690.65zM1293.39 1370.65L1362.68 1410.65L1362.68 1490.65L1293.39 1530.65L1224.11 1490.65L1224.11 1410.65zM1293.39 1850.65L1362.68 1890.65L1362.68 1970.65L1293.39 2010.65L1224.11 1970.65L1224.11 1890.65zM1362.68 2210.65L1431.96 2250.65L1431.96 2330.65L1362.68 2370.65L1293.39 2330.65L1293.39 2250.65zM1501.24 290.65L1570.53 330.65L1570.53 410.65L1501.24 450.65L1431.96 410.65L1431.96 330.65zM1501.24 530.65L1570.53 570.65L1570.53 650.65L1501.24 690.65L1431.96 650.65L1431.96 570.65zM1501.24 1010.65L1570.53 1050.65L1570.53 1130.65L1501.24 1170.65L1431.96 1130.65L1431.96 1050.65zM1501.24 1250.65L1570.53 1290.65L1570.53 1370.65L1501.24 1410.65L1431.96 1370.65L1431.96 1290.65zM1501.24 1490.65L1570.53 1530.65L1570.53 1610.65L1501.24 1650.65L1431.96 1610.65L1431.96 1530.65zM1431.96 1610.65L1501.24 1650.65L1501.24 1730.65L1431.96 1770.65L1362.68 1730.65L1362.68 1650.65zM1501.24 1970.65L1570.53 2010.65L1570.53 2090.65L1501.24 2130.65L1431.96 2090.65L1431.96 2010.65zM1431.96 2090.65L1501.24 2130.65L1501.24 2210.65L1431.96 2250.65L1362.68 2210.65L1362.68 2130.65zM1501.24 2450.65L1570.53 2490.65L1570.53 2570.65L1501.24 2610.65L1431.96 2570.65L1431.96 2490.65zM1431.96 2810.65L1501.24 2850.65L1501.24 2930.65L1431.96 2970.65L1362.68 2930.65L1362.68 2850.65z" stroke="#03305d" stroke-width="2"></path><path d="M38.28 -69.35 a8 8 0 1 0 16 0 a8 8 0 1 0 -16 0zM107.56 -29.35 a8 8 0 1 0 16 0 a8 8 0 1 0 -16 0zM107.56 50.65 a8 8 0 1 0 16 0 a8 8 0 1 0 -16 0zM38.28 90.65 a8 8 0 1 0 16 0 a8 8 0 1 0 -16 0zM-31 50.65 a8 8 0 1 0 16 0 a8 8 0 1 0 -16 0zM-31 -29.35 a8 8 0 1 0 16 0 a8 8 0 1 0 -16 0zM107.56 290.65 a8 8 0 1 0 16 0 a8 8 0 1 0 -16 0zM176.85 330.65 a8 8 0 1 0 16 0 a8 8 0 1 0 -16 0zM176.85 410.65 a8 8 0 1 0 16 0 a8 8 0 1 0 -16 0zM107.56 450.65 a8 8 0 1 0 16 0 a8 8 0 1 0 -16 0zM38.28 410.65 a8 8 0 1 0 16 0 a8 8 0 1 0 -16 0zM38.28 330.65 a8 8 0 1 0 16 0 a8 8 0 1 0 -16 0zM38.28 650.65 a8 8 0 1 0 16 0 a8 8 0 1 0 -16 0zM107.56 690.65 a8 8 0 1 0 16 0 a8 8 0 1 0 -16 0zM107.56 770.65 a8 8 0 1 0 16 0 a8 8 0 1 0 -16 0zM38.28 810.65 a8 8 0 1 0 16 0 a8 8 0 1 0 -16 0zM-31 770.65 a8 8 0 1 0 16 0 a8 8 0 1 0 -16 0zM-31 690.65 a8 8 0 1 0 16 0 a8 8 0 1 0 -16 0zM176.85 810.65 a8 8 0 1 0 16 0 a8 8 0 1 0 -16 0zM176.85 890.65 a8 8 0 1 0 16 0 a8 8 0 1 0 -16 0zM107.56 930.65 a8 8 0 1 0 16 0 a8 8 0 1 0 -16 0zM38.28 890.65 a8 8 0 1 0 16 0 a8 8 0 1 0 -16 0zM107.56 1010.65 a8 8 0 1 0 16 0 a8 8 0 1 0 -16 0zM176.85 1050.65 a8 8 0 1 0 16 0 a8 8 0 1 0 -16 0zM176.85 1130.65 a8 8 0 1 0 16 0 a8 8 0 1 0 -16 0zM107.56 1170.65 a8 8 0 1 0 16 0 a8 8 0 1 0 -16 0zM38.28 1130.65 a8 8 0 1 0 16 0 a8 8 0 1 0 -16 0zM38.28 1050.65 a8 8 0 1 0 16 0 a8 8 0 1 0 -16 0zM107.56 1250.65 a8 8 0 1 0 16 0 a8 8 0 1 0 -16 0zM176.85 1290.65 a8 8 0 1 0 16 0 a8 8 0 1 0 -16 0zM176.85 1370.65 a8 8 0 1 0 16 0 a8 8 0 1 0 -16 0zM107.56 1410.65 a8 8 0 1 0 16 0 a8 8 0 1 0 -16 0zM38.28 1370.65 a8 8 0 1 0 16 0 a8 8 0 1 0 -16 0zM38.28 1290.65 a8 8 0 1 0 16 0 a8 8 0 1 0 -16 0zM107.56 1490.65 a8 8 0 1 0 16 0 a8 8 0 1 0 -16 0zM176.85 1530.65 a8 8 0 1 0 16 0 a8 8 0 1 0 -16 0zM176.85 1610.65 a8 8 0 1 0 16 0 a8 8 0 1 0 -16 0zM107.56 1650.65 a8 8 0 1 0 16 0 a8 8 0 1 0 -16 0zM38.28 1610.65 a8 8 0 1 0 16 0 a8 8 0 1 0 -16 0zM38.28 1530.65 a8 8 0 1 0 16 0 a8 8 0 1 0 -16 0zM38.28 1850.65 a8 8 0 1 0 16 0 a8 8 0 1 0 -16 0zM107.56 1890.65 a8 8 0 1 0 16 0 a8 8 0 1 0 -16 0zM107.56 1970.65 a8 8 0 1 0 16 0 a8 8 0 1 0 -16 0zM38.28 2010.65 a8 8 0 1 0 16 0 a8 8 0 1 0 -16 0zM-31 1970.65 a8 8 0 1 0 16 0 a8 8 0 1 0 -16 0zM-31 1890.65 a8 8 0 1 0 16 0 a8 8 0 1 0 -16 0zM38.28 2330.65 a8 8 0 1 0 16 0 a8 8 0 1 0 -16 0zM107.56 2370.65 a8 8 0 1 0 16 0 a8 8 0 1 0 -16 0zM107.56 2450.65 a8 8 0 1 0 16 0 a8 8 0 1 0 -16 0zM38.28 2490.65 a8 8 0 1 0 16 0 a8 8 0 1 0 -16 0zM-31 2450.65 a8 8 0 1 0 16 0 a8 8 0 1 0 -16 0zM-31 2370.65 a8 8 0 1 0 16 0 a8 8 0 1 0 -16 0zM176.85 -69.35 a8 8 0 1 0 16 0 a8 8 0 1 0 -16 0zM246.13 -29.35 a8 8 0 1 0 16 0 a8 8 0 1 0 -16 0zM246.13 50.65 a8 8 0 1 0 16 0 a8 8 0 1 0 -16 0zM176.85 90.65 a8 8 0 1 0 16 0 a8 8 0 1 0 -16 0zM246.13 530.65 a8 8 0 1 0 16 0 a8 8 0 1 0 -16 0zM315.42 570.65 a8 8 0 1 0 16 0 a8 8 0 1 0 -16 0zM315.42 650.65 a8 8 0 1 0 16 0 a8 8 0 1 0 -16 0zM246.13 690.65 a8 8 0 1 0 16 0 a8 8 0 1 0 -16 0zM176.85 650.65 a8 8 0 1 0 16 0 a8 8 0 1 0 -16 0zM176.85 570.65 a8 8 0 1 0 16 0 a8 8 0 1 0 -16 0zM246.13 930.65 a8 8 0 1 0 16 0 a8 8 0 1 0 -16 0zM246.13 1010.65 a8 8 0 1 0 16 0 a8 8 0 1 0 -16 0zM315.42 1050.65 a8 8 0 1 0 16 0 a8 8 0 1 0 -16 0zM315.42 1130.65 a8 8 0 1 0 16 0 a8 8 0 1 0 -16 0zM246.13 1170.65 a8 8 0 1 0 16 0 a8 8 0 1 0 -16 0zM246.13 1490.65 a8 8 0 1 0 16 0 a8 8 0 1 0 -16 0zM315.42 1530.65 a8 8 0 1 0 16 0 a8 8 0 1 0 -16 0zM315.42 1610.65 a8 8 0 1 0 16 0 a8 8 0 1 0 -16 0zM246.13 1650.65 a8 8 0 1 0 16 0 a8 8 0 1 0 -16 0zM176.85 1850.65 a8 8 0 1 0 16 0 a8 8 0 1 0 -16 0zM246.13 1890.65 a8 8 0 1 0 16 0 a8 8 0 1 0 -16 0zM246.13 1970.65 a8 8 0 1 0 16 0 a8 8 0 1 0 -16 0zM176.85 2010.65 a8 8 0 1 0 16 0 a8 8 0 1 0 -16 0zM176.85 2090.65 a8 8 0 1 0 16 0 a8 8 0 1 0 -16 0zM246.13 2130.65 a8 8 0 1 0 16 0 a8 8 0 1 0 -16 0zM246.13 2210.65 a8 8 0 1 0 16 0 a8 8 0 1 0 -16 0zM176.85 2250.65 a8 8 0 1 0 16 0 a8 8 0 1 0 -16 0zM107.56 2210.65 a8 8 0 1 0 16 0 a8 8 0 1 0 -16 0zM107.56 2130.65 a8 8 0 1 0 16 0 a8 8 0 1 0 -16 0zM315.42 2250.65 a8 8 0 1 0 16 0 a8 8 0 1 0 -16 0zM315.42 2330.65 a8 8 0 1 0 16 0 a8 8 0 1 0 -16 0zM246.13 2370.65 a8 8 0 1 0 16 0 a8 8 0 1 0 -16 0zM176.85 2330.65 a8 8 0 1 0 16 0 a8 8 0 1 0 -16 0zM246.13 2450.65 a8 8 0 1 0 16 0 a8 8 0 1 0 -16 0zM176.85 2490.65 a8 8 0 1 0 16 0 a8 8 0 1 0 -16 0zM315.42 2490.65 a8 8 0 1 0 16 0 a8 8 0 1 0 -16 0zM315.42 2570.65 a8 8 0 1 0 16 0 a8 8 0 1 0 -16 0zM246.13 2610.65 a8 8 0 1 0 16 0 a8 8 0 1 0 -16 0zM176.85 2570.65 a8 8 0 1 0 16 0 a8 8 0 1 0 -16 0zM246.13 2690.65 a8 8 0 1 0 16 0 a8 8 0 1 0 -16 0zM176.85 2730.65 a8 8 0 1 0 16 0 a8 8 0 1 0 -16 0zM107.56 2690.65 a8 8 0 1 0 16 0 a8 8 0 1 0 -16 0zM107.56 2610.65 a8 8 0 1 0 16 0 a8 8 0 1 0 -16 0zM176.85 2810.65 a8 8 0 1 0 16 0 a8 8 0 1 0 -16 0zM246.13 2850.65 a8 8 0 1 0 16 0 a8 8 0 1 0 -16 0zM246.13 2930.65 a8 8 0 1 0 16 0 a8 8 0 1 0 -16 0zM176.85 2970.65 a8 8 0 1 0 16 0 a8 8 0 1 0 -16 0zM107.56 2930.65 a8 8 0 1 0 16 0 a8 8 0 1 0 -16 0zM107.56 2850.65 a8 8 0 1 0 16 0 a8 8 0 1 0 -16 0zM384.7 50.65 a8 8 0 1 0 16 0 a8 8 0 1 0 -16 0zM453.98 90.65 a8 8 0 1 0 16 0 a8 8 0 1 0 -16 0zM453.98 170.65 a8 8 0 1 0 16 0 a8 8 0 1 0 -16 0zM384.7 210.65 a8 8 0 1 0 16 0 a8 8 0 1 0 -16 0zM315.42 170.65 a8 8 0 1 0 16 0 a8 8 0 1 0 -16 0zM315.42 90.65 a8 8 0 1 0 16 0 a8 8 0 1 0 -16 0zM384.7 290.65 a8 8 0 1 0 16 0 a8 8 0 1 0 -16 0zM315.42 330.65 a8 8 0 1 0 16 0 a8 8 0 1 0 -16 0zM246.13 290.65 a8 8 0 1 0 16 0 a8 8 0 1 0 -16 0zM246.13 210.65 a8 8 0 1 0 16 0 a8 8 0 1 0 -16 0zM384.7 1650.65 a8 8 0 1 0 16 0 a8 8 0 1 0 -16 0zM384.7 1730.65 a8 8 0 1 0 16 0 a8 8 0 1 0 -16 0zM315.42 1770.65 a8 8 0 1 0 16 0 a8 8 0 1 0 -16 0zM246.13 1730.65 a8 8 0 1 0 16 0 a8 8 0 1 0 -16 0zM384.7 2610.65 a8 8 0 1 0 16 0 a8 8 0 1 0 -16 0zM384.7 2690.65 a8 8 0 1 0 16 0 a8 8 0 1 0 -16 0zM315.42 2730.65 a8 8 0 1 0 16 0 a8 8 0 1 0 -16 0zM523.27 50.65 a8 8 0 1 0 16 0 a8 8 0 1 0 -16 0zM592.55 90.65 a8 8 0 1 0 16 0 a8 8 0 1 0 -16 0zM592.55 170.65 a8 8 0 1 0 16 0 a8 8 0 1 0 -16 0zM523.27 210.65 a8 8 0 1 0 16 0 a8 8 0 1 0 -16 0zM453.98 410.65 a8 8 0 1 0 16 0 a8 8 0 1 0 -16 0zM523.27 450.65 a8 8 0 1 0 16 0 a8 8 0 1 0 -16 0zM523.27 530.65 a8 8 0 1 0 16 0 a8 8 0 1 0 -16 0zM453.98 570.65 a8 8 0 1 0 16 0 a8 8 0 1 0 -16 0zM384.7 530.65 a8 8 0 1 0 16 0 a8 8 0 1 0 -16 0zM384.7 450.65 a8 8 0 1 0 16 0 a8 8 0 1 0 -16 0zM592.55 570.65 a8 8 0 1 0 16 0 a8 8 0 1 0 -16 0zM592.55 650.65 a8 8 0 1 0 16 0 a8 8 0 1 0 -16 0zM523.27 690.65 a8 8 0 1 0 16 0 a8 8 0 1 0 -16 0zM453.98 650.65 a8 8 0 1 0 16 0 a8 8 0 1 0 -16 0zM523.27 1010.65 a8 8 0 1 0 16 0 a8 8 0 1 0 -16 0zM592.55 1050.65 a8 8 0 1 0 16 0 a8 8 0 1 0 -16 0zM592.55 1130.65 a8 8 0 1 0 16 0 a8 8 0 1 0 -16 0zM523.27 1170.65 a8 8 0 1 0 16 0 a8 8 0 1 0 -16 0zM453.98 1130.65 a8 8 0 1 0 16 0 a8 8 0 1 0 -16 0zM453.98 1050.65 a8 8 0 1 0 16 0 a8 8 0 1 0 -16 0zM523.27 1250.65 a8 8 0 1 0 16 0 a8 8 0 1 0 -16 0zM592.55 1290.65 a8 8 0 1 0 16 0 a8 8 0 1 0 -16 0zM592.55 1370.65 a8 8 0 1 0 16 0 a8 8 0 1 0 -16 0zM523.27 1410.65 a8 8 0 1 0 16 0 a8 8 0 1 0 -16 0zM453.98 1370.65 a8 8 0 1 0 16 0 a8 8 0 1 0 -16 0zM453.98 1290.65 a8 8 0 1 0 16 0 a8 8 0 1 0 -16 0zM523.27 1730.65 a8 8 0 1 0 16 0 a8 8 0 1 0 -16 0zM592.55 1770.65 a8 8 0 1 0 16 0 a8 8 0 1 0 -16 0zM592.55 1850.65 a8 8 0 1 0 16 0 a8 8 0 1 0 -16 0zM523.27 1890.65 a8 8 0 1 0 16 0 a8 8 0 1 0 -16 0zM453.98 1850.65 a8 8 0 1 0 16 0 a8 8 0 1 0 -16 0zM453.98 1770.65 a8 8 0 1 0 16 0 a8 8 0 1 0 -16 0zM453.98 2330.65 a8 8 0 1 0 16 0 a8 8 0 1 0 -16 0zM523.27 2370.65 a8 8 0 1 0 16 0 a8 8 0 1 0 -16 0zM523.27 2450.65 a8 8 0 1 0 16 0 a8 8 0 1 0 -16 0zM453.98 2490.65 a8 8 0 1 0 16 0 a8 8 0 1 0 -16 0zM384.7 2450.65 a8 8 0 1 0 16 0 a8 8 0 1 0 -16 0zM384.7 2370.65 a8 8 0 1 0 16 0 a8 8 0 1 0 -16 0zM592.55 -69.35 a8 8 0 1 0 16 0 a8 8 0 1 0 -16 0zM661.84 -29.35 a8 8 0 1 0 16 0 a8 8 0 1 0 -16 0zM661.84 50.65 a8 8 0 1 0 16 0 a8 8 0 1 0 -16 0zM523.27 -29.35 a8 8 0 1 0 16 0 a8 8 0 1 0 -16 0zM731.12 90.65 a8 8 0 1 0 16 0 a8 8 0 1 0 -16 0zM731.12 170.65 a8 8 0 1 0 16 0 a8 8 0 1 0 -16 0zM661.84 210.65 a8 8 0 1 0 16 0 a8 8 0 1 0 -16 0zM661.84 290.65 a8 8 0 1 0 16 0 a8 8 0 1 0 -16 0zM731.12 330.65 a8 8 0 1 0 16 0 a8 8 0 1 0 -16 0zM731.12 410.65 a8 8 0 1 0 16 0 a8 8 0 1 0 -16 0zM661.84 450.65 a8 8 0 1 0 16 0 a8 8 0 1 0 -16 0zM592.55 410.65 a8 8 0 1 0 16 0 a8 8 0 1 0 -16 0zM592.55 330.65 a8 8 0 1 0 16 0 a8 8 0 1 0 -16 0zM661.84 530.65 a8 8 0 1 0 16 0 a8 8 0 1 0 -16 0zM661.84 1010.65 a8 8 0 1 0 16 0 a8 8 0 1 0 -16 0zM731.12 1050.65 a8 8 0 1 0 16 0 a8 8 0 1 0 -16 0zM731.12 1130.65 a8 8 0 1 0 16 0 a8 8 0 1 0 -16 0zM661.84 1170.65 a8 8 0 1 0 16 0 a8 8 0 1 0 -16 0zM661.84 1250.65 a8 8 0 1 0 16 0 a8 8 0 1 0 -16 0zM731.12 1290.65 a8 8 0 1 0 16 0 a8 8 0 1 0 -16 0zM731.12 1370.65 a8 8 0 1 0 16 0 a8 8 0 1 0 -16 0zM661.84 1410.65 a8 8 0 1 0 16 0 a8 8 0 1 0 -16 0zM661.84 1490.65 a8 8 0 1 0 16 0 a8 8 0 1 0 -16 0zM731.12 1530.65 a8 8 0 1 0 16 0 a8 8 0 1 0 -16 0zM731.12 1610.65 a8 8 0 1 0 16 0 a8 8 0 1 0 -16 0zM661.84 1650.65 a8 8 0 1 0 16 0 a8 8 0 1 0 -16 0zM592.55 1610.65 a8 8 0 1 0 16 0 a8 8 0 1 0 -16 0zM592.55 1530.65 a8 8 0 1 0 16 0 a8 8 0 1 0 -16 0zM661.84 1730.65 a8 8 0 1 0 16 0 a8 8 0 1 0 -16 0zM731.12 1770.65 a8 8 0 1 0 16 0 a8 8 0 1 0 -16 0zM731.12 1850.65 a8 8 0 1 0 16 0 a8 8 0 1 0 -16 0zM661.84 1890.65 a8 8 0 1 0 16 0 a8 8 0 1 0 -16 0zM661.84 1970.65 a8 8 0 1 0 16 0 a8 8 0 1 0 -16 0zM731.12 2010.65 a8 8 0 1 0 16 0 a8 8 0 1 0 -16 0zM731.12 2090.65 a8 8 0 1 0 16 0 a8 8 0 1 0 -16 0zM661.84 2130.65 a8 8 0 1 0 16 0 a8 8 0 1 0 -16 0zM592.55 2090.65 a8 8 0 1 0 16 0 a8 8 0 1 0 -16 0zM592.55 2010.65 a8 8 0 1 0 16 0 a8 8 0 1 0 -16 0zM661.84 2210.65 a8 8 0 1 0 16 0 a8 8 0 1 0 -16 0zM592.55 2250.65 a8 8 0 1 0 16 0 a8 8 0 1 0 -16 0zM523.27 2210.65 a8 8 0 1 0 16 0 a8 8 0 1 0 -16 0zM523.27 2130.65 a8 8 0 1 0 16 0 a8 8 0 1 0 -16 0zM661.84 2690.65 a8 8 0 1 0 16 0 a8 8 0 1 0 -16 0zM731.12 2730.65 a8 8 0 1 0 16 0 a8 8 0 1 0 -16 0zM731.12 2810.65 a8 8 0 1 0 16 0 a8 8 0 1 0 -16 0zM661.84 2850.65 a8 8 0 1 0 16 0 a8 8 0 1 0 -16 0zM592.55 2810.65 a8 8 0 1 0 16 0 a8 8 0 1 0 -16 0zM592.55 2730.65 a8 8 0 1 0 16 0 a8 8 0 1 0 -16 0zM731.12 -69.35 a8 8 0 1 0 16 0 a8 8 0 1 0 -16 0zM800.4 -29.35 a8 8 0 1 0 16 0 a8 8 0 1 0 -16 0zM800.4 50.65 a8 8 0 1 0 16 0 a8 8 0 1 0 -16 0zM869.69 90.65 a8 8 0 1 0 16 0 a8 8 0 1 0 -16 0zM869.69 170.65 a8 8 0 1 0 16 0 a8 8 0 1 0 -16 0zM800.4 210.65 a8 8 0 1 0 16 0 a8 8 0 1 0 -16 0zM800.4 290.65 a8 8 0 1 0 16 0 a8 8 0 1 0 -16 0zM869.69 330.65 a8 8 0 1 0 16 0 a8 8 0 1 0 -16 0zM869.69 410.65 a8 8 0 1 0 16 0 a8 8 0 1 0 -16 0zM800.4 450.65 a8 8 0 1 0 16 0 a8 8 0 1 0 -16 0zM731.12 650.65 a8 8 0 1 0 16 0 a8 8 0 1 0 -16 0zM800.4 690.65 a8 8 0 1 0 16 0 a8 8 0 1 0 -16 0zM800.4 770.65 a8 8 0 1 0 16 0 a8 8 0 1 0 -16 0zM731.12 810.65 a8 8 0 1 0 16 0 a8 8 0 1 0 -16 0zM661.84 770.65 a8 8 0 1 0 16 0 a8 8 0 1 0 -16 0zM661.84 690.65 a8 8 0 1 0 16 0 a8 8 0 1 0 -16 0zM869.69 810.65 a8 8 0 1 0 16 0 a8 8 0 1 0 -16 0zM869.69 890.65 a8 8 0 1 0 16 0 a8 8 0 1 0 -16 0zM800.4 930.65 a8 8 0 1 0 16 0 a8 8 0 1 0 -16 0zM731.12 890.65 a8 8 0 1 0 16 0 a8 8 0 1 0 -16 0zM800.4 1490.65 a8 8 0 1 0 16 0 a8 8 0 1 0 -16 0zM869.69 1530.65 a8 8 0 1 0 16 0 a8 8 0 1 0 -16 0zM869.69 1610.65 a8 8 0 1 0 16 0 a8 8 0 1 0 -16 0zM800.4 1650.65 a8 8 0 1 0 16 0 a8 8 0 1 0 -16 0zM800.4 1730.65 a8 8 0 1 0 16 0 a8 8 0 1 0 -16 0zM869.69 1770.65 a8 8 0 1 0 16 0 a8 8 0 1 0 -16 0zM869.69 1850.65 a8 8 0 1 0 16 0 a8 8 0 1 0 -16 0zM800.4 1890.65 a8 8 0 1 0 16 0 a8 8 0 1 0 -16 0zM800.4 1970.65 a8 8 0 1 0 16 0 a8 8 0 1 0 -16 0zM800.4 2130.65 a8 8 0 1 0 16 0 a8 8 0 1 0 -16 0zM800.4 2210.65 a8 8 0 1 0 16 0 a8 8 0 1 0 -16 0zM731.12 2250.65 a8 8 0 1 0 16 0 a8 8 0 1 0 -16 0zM800.4 2850.65 a8 8 0 1 0 16 0 a8 8 0 1 0 -16 0zM800.4 2930.65 a8 8 0 1 0 16 0 a8 8 0 1 0 -16 0zM731.12 2970.65 a8 8 0 1 0 16 0 a8 8 0 1 0 -16 0zM661.84 2930.65 a8 8 0 1 0 16 0 a8 8 0 1 0 -16 0zM938.97 50.65 a8 8 0 1 0 16 0 a8 8 0 1 0 -16 0zM1008.26 90.65 a8 8 0 1 0 16 0 a8 8 0 1 0 -16 0zM1008.26 170.65 a8 8 0 1 0 16 0 a8 8 0 1 0 -16 0zM938.97 210.65 a8 8 0 1 0 16 0 a8 8 0 1 0 -16 0zM938.97 290.65 a8 8 0 1 0 16 0 a8 8 0 1 0 -16 0zM1008.26 330.65 a8 8 0 1 0 16 0 a8 8 0 1 0 -16 0zM1008.26 410.65 a8 8 0 1 0 16 0 a8 8 0 1 0 -16 0zM938.97 450.65 a8 8 0 1 0 16 0 a8 8 0 1 0 -16 0zM938.97 530.65 a8 8 0 1 0 16 0 a8 8 0 1 0 -16 0zM869.69 570.65 a8 8 0 1 0 16 0 a8 8 0 1 0 -16 0zM800.4 530.65 a8 8 0 1 0 16 0 a8 8 0 1 0 -16 0zM938.97 930.65 a8 8 0 1 0 16 0 a8 8 0 1 0 -16 0zM938.97 1010.65 a8 8 0 1 0 16 0 a8 8 0 1 0 -16 0zM869.69 1050.65 a8 8 0 1 0 16 0 a8 8 0 1 0 -16 0zM800.4 1010.65 a8 8 0 1 0 16 0 a8 8 0 1 0 -16 0zM869.69 1130.65 a8 8 0 1 0 16 0 a8 8 0 1 0 -16 0zM938.97 1170.65 a8 8 0 1 0 16 0 a8 8 0 1 0 -16 0zM938.97 1250.65 a8 8 0 1 0 16 0 a8 8 0 1 0 -16 0zM869.69 1290.65 a8 8 0 1 0 16 0 a8 8 0 1 0 -16 0zM800.4 1250.65 a8 8 0 1 0 16 0 a8 8 0 1 0 -16 0zM800.4 1170.65 a8 8 0 1 0 16 0 a8 8 0 1 0 -16 0zM938.97 1490.65 a8 8 0 1 0 16 0 a8 8 0 1 0 -16 0zM1008.26 1530.65 a8 8 0 1 0 16 0 a8 8 0 1 0 -16 0zM1008.26 1610.65 a8 8 0 1 0 16 0 a8 8 0 1 0 -16 0zM938.97 1650.65 a8 8 0 1 0 16 0 a8 8 0 1 0 -16 0zM938.97 1730.65 a8 8 0 1 0 16 0 a8 8 0 1 0 -16 0zM1008.26 1770.65 a8 8 0 1 0 16 0 a8 8 0 1 0 -16 0zM1008.26 1850.65 a8 8 0 1 0 16 0 a8 8 0 1 0 -16 0zM938.97 1890.65 a8 8 0 1 0 16 0 a8 8 0 1 0 -16 0zM869.69 2090.65 a8 8 0 1 0 16 0 a8 8 0 1 0 -16 0zM938.97 2130.65 a8 8 0 1 0 16 0 a8 8 0 1 0 -16 0zM938.97 2210.65 a8 8 0 1 0 16 0 a8 8 0 1 0 -16 0zM869.69 2250.65 a8 8 0 1 0 16 0 a8 8 0 1 0 -16 0zM1077.54 50.65 a8 8 0 1 0 16 0 a8 8 0 1 0 -16 0zM1146.82 90.65 a8 8 0 1 0 16 0 a8 8 0 1 0 -16 0zM1146.82 170.65 a8 8 0 1 0 16 0 a8 8 0 1 0 -16 0zM1077.54 210.65 a8 8 0 1 0 16 0 a8 8 0 1 0 -16 0zM1077.54 450.65 a8 8 0 1 0 16 0 a8 8 0 1 0 -16 0zM1077.54 530.65 a8 8 0 1 0 16 0 a8 8 0 1 0 -16 0zM1008.26 570.65 a8 8 0 1 0 16 0 a8 8 0 1 0 -16 0zM1077.54 770.65 a8 8 0 1 0 16 0 a8 8 0 1 0 -16 0zM1146.82 810.65 a8 8 0 1 0 16 0 a8 8 0 1 0 -16 0zM1146.82 890.65 a8 8 0 1 0 16 0 a8 8 0 1 0 -16 0zM1077.54 930.65 a8 8 0 1 0 16 0 a8 8 0 1 0 -16 0zM1008.26 890.65 a8 8 0 1 0 16 0 a8 8 0 1 0 -16 0zM1008.26 810.65 a8 8 0 1 0 16 0 a8 8 0 1 0 -16 0zM1077.54 1010.65 a8 8 0 1 0 16 0 a8 8 0 1 0 -16 0zM1008.26 1050.65 a8 8 0 1 0 16 0 a8 8 0 1 0 -16 0zM1146.82 1050.65 a8 8 0 1 0 16 0 a8 8 0 1 0 -16 0zM1146.82 1130.65 a8 8 0 1 0 16 0 a8 8 0 1 0 -16 0zM1077.54 1170.65 a8 8 0 1 0 16 0 a8 8 0 1 0 -16 0zM1008.26 1130.65 a8 8 0 1 0 16 0 a8 8 0 1 0 -16 0zM1077.54 1490.65 a8 8 0 1 0 16 0 a8 8 0 1 0 -16 0zM1146.82 1530.65 a8 8 0 1 0 16 0 a8 8 0 1 0 -16 0zM1146.82 1610.65 a8 8 0 1 0 16 0 a8 8 0 1 0 -16 0zM1077.54 1650.65 a8 8 0 1 0 16 0 a8 8 0 1 0 -16 0zM1077.54 1730.65 a8 8 0 1 0 16 0 a8 8 0 1 0 -16 0zM1077.54 1890.65 a8 8 0 1 0 16 0 a8 8 0 1 0 -16 0zM1077.54 1970.65 a8 8 0 1 0 16 0 a8 8 0 1 0 -16 0zM1008.26 2010.65 a8 8 0 1 0 16 0 a8 8 0 1 0 -16 0zM938.97 1970.65 a8 8 0 1 0 16 0 a8 8 0 1 0 -16 0zM1008.26 2090.65 a8 8 0 1 0 16 0 a8 8 0 1 0 -16 0zM1077.54 2130.65 a8 8 0 1 0 16 0 a8 8 0 1 0 -16 0zM1077.54 2210.65 a8 8 0 1 0 16 0 a8 8 0 1 0 -16 0zM1008.26 2250.65 a8 8 0 1 0 16 0 a8 8 0 1 0 -16 0zM1077.54 2930.65 a8 8 0 1 0 16 0 a8 8 0 1 0 -16 0zM1146.82 2970.65 a8 8 0 1 0 16 0 a8 8 0 1 0 -16 0zM1146.82 3050.65 a8 8 0 1 0 16 0 a8 8 0 1 0 -16 0zM1077.54 3090.65 a8 8 0 1 0 16 0 a8 8 0 1 0 -16 0zM1008.26 3050.65 a8 8 0 1 0 16 0 a8 8 0 1 0 -16 0zM1008.26 2970.65 a8 8 0 1 0 16 0 a8 8 0 1 0 -16 0zM1216.11 290.65 a8 8 0 1 0 16 0 a8 8 0 1 0 -16 0zM1285.39 330.65 a8 8 0 1 0 16 0 a8 8 0 1 0 -16 0zM1285.39 410.65 a8 8 0 1 0 16 0 a8 8 0 1 0 -16 0zM1216.11 450.65 a8 8 0 1 0 16 0 a8 8 0 1 0 -16 0zM1146.82 410.65 a8 8 0 1 0 16 0 a8 8 0 1 0 -16 0zM1146.82 330.65 a8 8 0 1 0 16 0 a8 8 0 1 0 -16 0zM1216.11 530.65 a8 8 0 1 0 16 0 a8 8 0 1 0 -16 0zM1285.39 570.65 a8 8 0 1 0 16 0 a8 8 0 1 0 -16 0zM1285.39 650.65 a8 8 0 1 0 16 0 a8 8 0 1 0 -16 0zM1216.11 690.65 a8 8 0 1 0 16 0 a8 8 0 1 0 -16 0zM1146.82 650.65 a8 8 0 1 0 16 0 a8 8 0 1 0 -16 0zM1146.82 570.65 a8 8 0 1 0 16 0 a8 8 0 1 0 -16 0zM1216.11 770.65 a8 8 0 1 0 16 0 a8 8 0 1 0 -16 0zM1285.39 810.65 a8 8 0 1 0 16 0 a8 8 0 1 0 -16 0zM1285.39 890.65 a8 8 0 1 0 16 0 a8 8 0 1 0 -16 0zM1216.11 930.65 a8 8 0 1 0 16 0 a8 8 0 1 0 -16 0zM1216.11 1010.65 a8 8 0 1 0 16 0 a8 8 0 1 0 -16 0zM1216.11 1250.65 a8 8 0 1 0 16 0 a8 8 0 1 0 -16 0zM1285.39 1290.65 a8 8 0 1 0 16 0 a8 8 0 1 0 -16 0zM1285.39 1370.65 a8 8 0 1 0 16 0 a8 8 0 1 0 -16 0zM1216.11 1410.65 a8 8 0 1 0 16 0 a8 8 0 1 0 -16 0zM1146.82 1370.65 a8 8 0 1 0 16 0 a8 8 0 1 0 -16 0zM1146.82 1290.65 a8 8 0 1 0 16 0 a8 8 0 1 0 -16 0zM1216.11 1490.65 a8 8 0 1 0 16 0 a8 8 0 1 0 -16 0zM1077.54 1410.65 a8 8 0 1 0 16 0 a8 8 0 1 0 -16 0zM1285.39 1530.65 a8 8 0 1 0 16 0 a8 8 0 1 0 -16 0zM1285.39 1610.65 a8 8 0 1 0 16 0 a8 8 0 1 0 -16 0zM1216.11 1650.65 a8 8 0 1 0 16 0 a8 8 0 1 0 -16 0zM1216.11 1730.65 a8 8 0 1 0 16 0 a8 8 0 1 0 -16 0zM1146.82 1770.65 a8 8 0 1 0 16 0 a8 8 0 1 0 -16 0zM1216.11 1970.65 a8 8 0 1 0 16 0 a8 8 0 1 0 -16 0zM1285.39 2010.65 a8 8 0 1 0 16 0 a8 8 0 1 0 -16 0zM1285.39 2090.65 a8 8 0 1 0 16 0 a8 8 0 1 0 -16 0zM1216.11 2130.65 a8 8 0 1 0 16 0 a8 8 0 1 0 -16 0zM1146.82 2090.65 a8 8 0 1 0 16 0 a8 8 0 1 0 -16 0zM1146.82 2010.65 a8 8 0 1 0 16 0 a8 8 0 1 0 -16 0zM1216.11 2690.65 a8 8 0 1 0 16 0 a8 8 0 1 0 -16 0zM1285.39 2730.65 a8 8 0 1 0 16 0 a8 8 0 1 0 -16 0zM1285.39 2810.65 a8 8 0 1 0 16 0 a8 8 0 1 0 -16 0zM1216.11 2850.65 a8 8 0 1 0 16 0 a8 8 0 1 0 -16 0zM1146.82 2810.65 a8 8 0 1 0 16 0 a8 8 0 1 0 -16 0zM1146.82 2730.65 a8 8 0 1 0 16 0 a8 8 0 1 0 -16 0zM1285.39 170.65 a8 8 0 1 0 16 0 a8 8 0 1 0 -16 0zM1354.68 210.65 a8 8 0 1 0 16 0 a8 8 0 1 0 -16 0zM1354.68 290.65 a8 8 0 1 0 16 0 a8 8 0 1 0 -16 0zM1216.11 210.65 a8 8 0 1 0 16 0 a8 8 0 1 0 -16 0zM1423.96 330.65 a8 8 0 1 0 16 0 a8 8 0 1 0 -16 0zM1423.96 410.65 a8 8 0 1 0 16 0 a8 8 0 1 0 -16 0zM1354.68 450.65 a8 8 0 1 0 16 0 a8 8 0 1 0 -16 0zM1354.68 530.65 a8 8 0 1 0 16 0 a8 8 0 1 0 -16 0zM1423.96 570.65 a8 8 0 1 0 16 0 a8 8 0 1 0 -16 0zM1423.96 650.65 a8 8 0 1 0 16 0 a8 8 0 1 0 -16 0zM1354.68 690.65 a8 8 0 1 0 16 0 a8 8 0 1 0 -16 0zM1354.68 770.65 a8 8 0 1 0 16 0 a8 8 0 1 0 -16 0zM1354.68 1410.65 a8 8 0 1 0 16 0 a8 8 0 1 0 -16 0zM1354.68 1490.65 a8 8 0 1 0 16 0 a8 8 0 1 0 -16 0zM1285.39 1850.65 a8 8 0 1 0 16 0 a8 8 0 1 0 -16 0zM1354.68 1890.65 a8 8 0 1 0 16 0 a8 8 0 1 0 -16 0zM1354.68 1970.65 a8 8 0 1 0 16 0 a8 8 0 1 0 -16 0zM1216.11 1890.65 a8 8 0 1 0 16 0 a8 8 0 1 0 -16 0zM1354.68 2210.65 a8 8 0 1 0 16 0 a8 8 0 1 0 -16 0zM1423.96 2250.65 a8 8 0 1 0 16 0 a8 8 0 1 0 -16 0zM1423.96 2330.65 a8 8 0 1 0 16 0 a8 8 0 1 0 -16 0zM1354.68 2370.65 a8 8 0 1 0 16 0 a8 8 0 1 0 -16 0zM1285.39 2330.65 a8 8 0 1 0 16 0 a8 8 0 1 0 -16 0zM1285.39 2250.65 a8 8 0 1 0 16 0 a8 8 0 1 0 -16 0zM1493.24 290.65 a8 8 0 1 0 16 0 a8 8 0 1 0 -16 0zM1562.53 330.65 a8 8 0 1 0 16 0 a8 8 0 1 0 -16 0zM1562.53 410.65 a8 8 0 1 0 16 0 a8 8 0 1 0 -16 0zM1493.24 450.65 a8 8 0 1 0 16 0 a8 8 0 1 0 -16 0zM1493.24 530.65 a8 8 0 1 0 16 0 a8 8 0 1 0 -16 0zM1562.53 570.65 a8 8 0 1 0 16 0 a8 8 0 1 0 -16 0zM1562.53 650.65 a8 8 0 1 0 16 0 a8 8 0 1 0 -16 0zM1493.24 690.65 a8 8 0 1 0 16 0 a8 8 0 1 0 -16 0zM1493.24 1010.65 a8 8 0 1 0 16 0 a8 8 0 1 0 -16 0zM1562.53 1050.65 a8 8 0 1 0 16 0 a8 8 0 1 0 -16 0zM1562.53 1130.65 a8 8 0 1 0 16 0 a8 8 0 1 0 -16 0zM1493.24 1170.65 a8 8 0 1 0 16 0 a8 8 0 1 0 -16 0zM1423.96 1130.65 a8 8 0 1 0 16 0 a8 8 0 1 0 -16 0zM1423.96 1050.65 a8 8 0 1 0 16 0 a8 8 0 1 0 -16 0zM1493.24 1250.65 a8 8 0 1 0 16 0 a8 8 0 1 0 -16 0zM1562.53 1290.65 a8 8 0 1 0 16 0 a8 8 0 1 0 -16 0zM1562.53 1370.65 a8 8 0 1 0 16 0 a8 8 0 1 0 -16 0zM1493.24 1410.65 a8 8 0 1 0 16 0 a8 8 0 1 0 -16 0zM1423.96 1370.65 a8 8 0 1 0 16 0 a8 8 0 1 0 -16 0zM1423.96 1290.65 a8 8 0 1 0 16 0 a8 8 0 1 0 -16 0zM1493.24 1490.65 a8 8 0 1 0 16 0 a8 8 0 1 0 -16 0zM1562.53 1530.65 a8 8 0 1 0 16 0 a8 8 0 1 0 -16 0zM1562.53 1610.65 a8 8 0 1 0 16 0 a8 8 0 1 0 -16 0zM1493.24 1650.65 a8 8 0 1 0 16 0 a8 8 0 1 0 -16 0zM1423.96 1610.65 a8 8 0 1 0 16 0 a8 8 0 1 0 -16 0zM1423.96 1530.65 a8 8 0 1 0 16 0 a8 8 0 1 0 -16 0zM1493.24 1730.65 a8 8 0 1 0 16 0 a8 8 0 1 0 -16 0zM1423.96 1770.65 a8 8 0 1 0 16 0 a8 8 0 1 0 -16 0zM1354.68 1730.65 a8 8 0 1 0 16 0 a8 8 0 1 0 -16 0zM1354.68 1650.65 a8 8 0 1 0 16 0 a8 8 0 1 0 -16 0zM1493.24 1970.65 a8 8 0 1 0 16 0 a8 8 0 1 0 -16 0zM1562.53 2010.65 a8 8 0 1 0 16 0 a8 8 0 1 0 -16 0zM1562.53 2090.65 a8 8 0 1 0 16 0 a8 8 0 1 0 -16 0zM1493.24 2130.65 a8 8 0 1 0 16 0 a8 8 0 1 0 -16 0zM1423.96 2090.65 a8 8 0 1 0 16 0 a8 8 0 1 0 -16 0zM1423.96 2010.65 a8 8 0 1 0 16 0 a8 8 0 1 0 -16 0zM1493.24 2210.65 a8 8 0 1 0 16 0 a8 8 0 1 0 -16 0zM1354.68 2130.65 a8 8 0 1 0 16 0 a8 8 0 1 0 -16 0zM1493.24 2450.65 a8 8 0 1 0 16 0 a8 8 0 1 0 -16 0zM1562.53 2490.65 a8 8 0 1 0 16 0 a8 8 0 1 0 -16 0zM1562.53 2570.65 a8 8 0 1 0 16 0 a8 8 0 1 0 -16 0zM1493.24 2610.65 a8 8 0 1 0 16 0 a8 8 0 1 0 -16 0zM1423.96 2570.65 a8 8 0 1 0 16 0 a8 8 0 1 0 -16 0zM1423.96 2490.65 a8 8 0 1 0 16 0 a8 8 0 1 0 -16 0zM1423.96 2810.65 a8 8 0 1 0 16 0 a8 8 0 1 0 -16 0zM1493.24 2850.65 a8 8 0 1 0 16 0 a8 8 0 1 0 -16 0zM1493.24 2930.65 a8 8 0 1 0 16 0 a8 8 0 1 0 -16 0zM1423.96 2970.65 a8 8 0 1 0 16 0 a8 8 0 1 0 -16 0zM1354.68 2930.65 a8 8 0 1 0 16 0 a8 8 0 1 0 -16 0zM1354.68 2850.65 a8 8 0 1 0 16 0 a8 8 0 1 0 -16 0z" fill="#03305d"></path><path d="M99.45 245.11L151.42 275.11L151.42 335.11L99.45 365.11L47.49 335.11L47.49 275.11zM99.45 425.11L151.42 455.11L151.42 515.11L99.45 545.11L47.49 515.11L47.49 455.11zM47.49 515.11L99.45 545.11L99.45 605.11L47.49 635.11L-4.47 605.11L-4.47 545.11zM99.45 605.11L151.42 635.11L151.42 695.11L99.45 725.11L47.49 695.11L47.49 635.11zM47.49 875.11L99.45 905.11L99.45 965.11L47.49 995.11L-4.47 965.11L-4.47 905.11zM99.45 965.11L151.42 995.11L151.42 1055.11L99.45 1085.11L47.49 1055.11L47.49 995.11zM99.45 2405.11L151.42 2435.11L151.42 2495.11L99.45 2525.11L47.49 2495.11L47.49 2435.11zM203.38 605.11L255.34 635.11L255.34 695.11L203.38 725.11L151.42 695.11L151.42 635.11zM151.42 1055.11L203.38 1085.11L203.38 1145.11L151.42 1175.11L99.45 1145.11L99.45 1085.11zM203.38 1145.11L255.34 1175.11L255.34 1235.11L203.38 1265.11L151.42 1235.11L151.42 1175.11zM151.42 2135.11L203.38 2165.11L203.38 2225.11L151.42 2255.11L99.45 2225.11L99.45 2165.11zM151.42 2315.11L203.38 2345.11L203.38 2405.11L151.42 2435.11L99.45 2405.11L99.45 2345.11zM203.38 2585.11L255.34 2615.11L255.34 2675.11L203.38 2705.11L151.42 2675.11L151.42 2615.11zM151.42 2675.11L203.38 2705.11L203.38 2765.11L151.42 2795.11L99.45 2765.11L99.45 2705.11zM151.42 2855.11L203.38 2885.11L203.38 2945.11L151.42 2975.11L99.45 2945.11L99.45 2885.11zM255.34 515.11L307.31 545.11L307.31 605.11L255.34 635.11L203.38 605.11L203.38 545.11zM307.31 605.11L359.27 635.11L359.27 695.11L307.31 725.11L255.34 695.11L255.34 635.11zM307.31 965.11L359.27 995.11L359.27 1055.11L307.31 1085.11L255.34 1055.11L255.34 995.11zM255.34 1055.11L307.31 1085.11L307.31 1145.11L255.34 1175.11L203.38 1145.11L203.38 1085.11zM255.34 1235.11L307.31 1265.11L307.31 1325.11L255.34 1355.11L203.38 1325.11L203.38 1265.11zM307.31 2045.11L359.27 2075.11L359.27 2135.11L307.31 2165.11L255.34 2135.11L255.34 2075.11zM255.34 2495.11L307.31 2525.11L307.31 2585.11L255.34 2615.11L203.38 2585.11L203.38 2525.11zM359.27 695.11L411.23 725.11L411.23 785.11L359.27 815.11L307.31 785.11L307.31 725.11zM359.27 1055.11L411.23 1085.11L411.23 1145.11L359.27 1175.11L307.31 1145.11L307.31 1085.11zM411.23 1145.11L463.19 1175.11L463.19 1235.11L411.23 1265.11L359.27 1235.11L359.27 1175.11zM411.23 1325.11L463.19 1355.11L463.19 1415.11L411.23 1445.11L359.27 1415.11L359.27 1355.11zM359.27 1415.11L411.23 1445.11L411.23 1505.11L359.27 1535.11L307.31 1505.11L307.31 1445.11zM411.23 1865.11L463.19 1895.11L463.19 1955.11L411.23 1985.11L359.27 1955.11L359.27 1895.11zM359.27 2495.11L411.23 2525.11L411.23 2585.11L359.27 2615.11L307.31 2585.11L307.31 2525.11zM411.23 2585.11L463.19 2615.11L463.19 2675.11L411.23 2705.11L359.27 2675.11L359.27 2615.11zM411.23 2765.11L463.19 2795.11L463.19 2855.11L411.23 2885.11L359.27 2855.11L359.27 2795.11zM359.27 2855.11L411.23 2885.11L411.23 2945.11L359.27 2975.11L307.31 2945.11L307.31 2885.11zM463.19 -24.89L515.16 5.11L515.16 65.11L463.19 95.11L411.23 65.11L411.23 5.11zM463.19 155.11L515.16 185.11L515.16 245.11L463.19 275.11L411.23 245.11L411.23 185.11zM515.16 425.11L567.12 455.11L567.12 515.11L515.16 545.11L463.19 515.11L463.19 455.11zM515.16 605.11L567.12 635.11L567.12 695.11L515.16 725.11L463.19 695.11L463.19 635.11zM463.19 1235.11L515.16 1265.11L515.16 1325.11L463.19 1355.11L411.23 1325.11L411.23 1265.11zM515.16 1505.11L567.12 1535.11L567.12 1595.11L515.16 1625.11L463.19 1595.11L463.19 1535.11zM515.16 1685.11L567.12 1715.11L567.12 1775.11L515.16 1805.11L463.19 1775.11L463.19 1715.11zM515.16 1865.11L567.12 1895.11L567.12 1955.11L515.16 1985.11L463.19 1955.11L463.19 1895.11zM463.19 1955.11L515.16 1985.11L515.16 2045.11L463.19 2075.11L411.23 2045.11L411.23 1985.11zM463.19 2855.11L515.16 2885.11L515.16 2945.11L463.19 2975.11L411.23 2945.11L411.23 2885.11zM619.08 425.11L671.05 455.11L671.05 515.11L619.08 545.11L567.12 515.11L567.12 455.11zM567.12 515.11L619.08 545.11L619.08 605.11L567.12 635.11L515.16 605.11L515.16 545.11zM619.08 1145.11L671.05 1175.11L671.05 1235.11L619.08 1265.11L567.12 1235.11L567.12 1175.11zM567.12 1235.11L619.08 1265.11L619.08 1325.11L567.12 1355.11L515.16 1325.11L515.16 1265.11zM619.08 1325.11L671.05 1355.11L671.05 1415.11L619.08 1445.11L567.12 1415.11L567.12 1355.11zM619.08 2405.11L671.05 2435.11L671.05 2495.11L619.08 2525.11L567.12 2495.11L567.12 2435.11zM567.12 2855.11L619.08 2885.11L619.08 2945.11L567.12 2975.11L515.16 2945.11L515.16 2885.11zM723.01 65.11L774.97 95.11L774.97 155.11L723.01 185.11L671.05 155.11L671.05 95.11zM671.05 155.11L723.01 185.11L723.01 245.11L671.05 275.11L619.08 245.11L619.08 185.11zM723.01 605.11L774.97 635.11L774.97 695.11L723.01 725.11L671.05 695.11L671.05 635.11zM671.05 1055.11L723.01 1085.11L723.01 1145.11L671.05 1175.11L619.08 1145.11L619.08 1085.11zM671.05 1595.11L723.01 1625.11L723.01 1685.11L671.05 1715.11L619.08 1685.11L619.08 1625.11zM723.01 2225.11L774.97 2255.11L774.97 2315.11L723.01 2345.11L671.05 2315.11L671.05 2255.11zM723.01 2405.11L774.97 2435.11L774.97 2495.11L723.01 2525.11L671.05 2495.11L671.05 2435.11zM826.93 65.11L878.9 95.11L878.9 155.11L826.93 185.11L774.97 155.11L774.97 95.11zM774.97 335.11L826.93 365.11L826.93 425.11L774.97 455.11L723.01 425.11L723.01 365.11zM826.93 965.11L878.9 995.11L878.9 1055.11L826.93 1085.11L774.97 1055.11L774.97 995.11zM826.93 1145.11L878.9 1175.11L878.9 1235.11L826.93 1265.11L774.97 1235.11L774.97 1175.11zM826.93 1325.11L878.9 1355.11L878.9 1415.11L826.93 1445.11L774.97 1415.11L774.97 1355.11zM774.97 1595.11L826.93 1625.11L826.93 1685.11L774.97 1715.11L723.01 1685.11L723.01 1625.11zM774.97 2135.11L826.93 2165.11L826.93 2225.11L774.97 2255.11L723.01 2225.11L723.01 2165.11zM774.97 2315.11L826.93 2345.11L826.93 2405.11L774.97 2435.11L723.01 2405.11L723.01 2345.11zM878.9 -24.89L930.86 5.11L930.86 65.11L878.9 95.11L826.94 65.11L826.94 5.11zM930.86 245.11L982.82 275.11L982.82 335.11L930.86 365.11L878.9 335.11L878.9 275.11zM930.86 605.11L982.82 635.11L982.82 695.11L930.86 725.11L878.9 695.11L878.9 635.11zM930.86 965.11L982.82 995.11L982.82 1055.11L930.86 1085.11L878.9 1055.11L878.9 995.11zM930.86 1145.11L982.82 1175.11L982.82 1235.11L930.86 1265.11L878.9 1235.11L878.9 1175.11zM930.86 1685.11L982.82 1715.11L982.82 1775.11L930.86 1805.11L878.9 1775.11L878.9 1715.11zM878.9 2495.11L930.86 2525.11L930.86 2585.11L878.9 2615.11L826.94 2585.11L826.94 2525.11zM1034.79 65.11L1086.75 95.11L1086.75 155.11L1034.79 185.11L982.82 155.11L982.82 95.11zM982.82 335.11L1034.79 365.11L1034.79 425.11L982.82 455.11L930.86 425.11L930.86 365.11zM982.82 875.11L1034.79 905.11L1034.79 965.11L982.82 995.11L930.86 965.11L930.86 905.11zM982.82 1415.11L1034.79 1445.11L1034.79 1505.11L982.82 1535.11L930.86 1505.11L930.86 1445.11zM1034.79 1685.11L1086.75 1715.11L1086.75 1775.11L1034.79 1805.11L982.82 1775.11L982.82 1715.11zM1034.79 1865.11L1086.75 1895.11L1086.75 1955.11L1034.79 1985.11L982.82 1955.11L982.82 1895.11zM1034.79 2585.11L1086.75 2615.11L1086.75 2675.11L1034.79 2705.11L982.82 2675.11L982.82 2615.11zM982.82 2855.11L1034.79 2885.11L1034.79 2945.11L982.82 2975.11L930.86 2945.11L930.86 2885.11zM1138.71 65.11L1190.68 95.11L1190.68 155.11L1138.71 185.11L1086.75 155.11L1086.75 95.11zM1086.75 515.11L1138.71 545.11L1138.71 605.11L1086.75 635.11L1034.79 605.11L1034.79 545.11zM1086.75 1055.11L1138.71 1085.11L1138.71 1145.11L1086.75 1175.11L1034.79 1145.11L1034.79 1085.11zM1086.75 1235.11L1138.71 1265.11L1138.71 1325.11L1086.75 1355.11L1034.79 1325.11L1034.79 1265.11zM1138.71 1325.11L1190.68 1355.11L1190.68 1415.11L1138.71 1445.11L1086.75 1415.11L1086.75 1355.11zM1086.75 1775.11L1138.71 1805.11L1138.71 1865.11L1086.75 1895.11L1034.79 1865.11L1034.79 1805.11zM1086.75 1955.11L1138.71 1985.11L1138.71 2045.11L1086.75 2075.11L1034.79 2045.11L1034.79 1985.11zM1086.75 2675.11L1138.71 2705.11L1138.71 2765.11L1086.75 2795.11L1034.79 2765.11L1034.79 2705.11zM1086.75 2855.11L1138.71 2885.11L1138.71 2945.11L1086.75 2975.11L1034.79 2945.11L1034.79 2885.11zM1190.68 -24.89L1242.64 5.11L1242.64 65.11L1190.68 95.11L1138.71 65.11L1138.71 5.11zM1190.68 335.11L1242.64 365.11L1242.64 425.11L1190.68 455.11L1138.71 425.11L1138.71 365.11zM1242.64 605.11L1294.6 635.11L1294.6 695.11L1242.64 725.11L1190.68 695.11L1190.68 635.11zM1190.68 695.11L1242.64 725.11L1242.64 785.11L1190.68 815.11L1138.71 785.11L1138.71 725.11zM1242.64 785.11L1294.6 815.11L1294.6 875.11L1242.64 905.11L1190.68 875.11L1190.68 815.11zM1190.68 875.11L1242.64 905.11L1242.64 965.11L1190.68 995.11L1138.71 965.11L1138.71 905.11zM1242.64 965.11L1294.6 995.11L1294.6 1055.11L1242.64 1085.11L1190.68 1055.11L1190.68 995.11zM1242.64 1325.11L1294.6 1355.11L1294.6 1415.11L1242.64 1445.11L1190.68 1415.11L1190.68 1355.11zM1242.64 1505.11L1294.6 1535.11L1294.6 1595.11L1242.64 1625.11L1190.68 1595.11L1190.68 1535.11zM1242.64 1865.11L1294.6 1895.11L1294.6 1955.11L1242.64 1985.11L1190.68 1955.11L1190.68 1895.11zM1242.64 2045.11L1294.6 2075.11L1294.6 2135.11L1242.64 2165.11L1190.68 2135.11L1190.68 2075.11zM1190.68 2315.11L1242.64 2345.11L1242.64 2405.11L1190.68 2435.11L1138.71 2405.11L1138.71 2345.11zM1294.6 155.11L1346.57 185.11L1346.57 245.11L1294.6 275.11L1242.64 245.11L1242.64 185.11zM1346.57 425.11L1398.53 455.11L1398.53 515.11L1346.57 545.11L1294.6 515.11L1294.6 455.11zM1294.6 515.11L1346.57 545.11L1346.57 605.11L1294.6 635.11L1242.64 605.11L1242.64 545.11zM1294.6 875.11L1346.57 905.11L1346.57 965.11L1294.6 995.11L1242.64 965.11L1242.64 905.11zM1346.57 1325.11L1398.53 1355.11L1398.53 1415.11L1346.57 1445.11L1294.6 1415.11L1294.6 1355.11zM1346.57 1505.11L1398.53 1535.11L1398.53 1595.11L1346.57 1625.11L1294.6 1595.11L1294.6 1535.11zM1294.6 1595.11L1346.57 1625.11L1346.57 1685.11L1294.6 1715.11L1242.64 1685.11L1242.64 1625.11zM1346.57 2045.11L1398.53 2075.11L1398.53 2135.11L1346.57 2165.11L1294.6 2135.11L1294.6 2075.11zM1346.57 2405.11L1398.53 2435.11L1398.53 2495.11L1346.57 2525.11L1294.6 2495.11L1294.6 2435.11zM1294.6 2495.11L1346.57 2525.11L1346.57 2585.11L1294.6 2615.11L1242.64 2585.11L1242.64 2525.11zM1346.57 2585.11L1398.53 2615.11L1398.53 2675.11L1346.57 2705.11L1294.6 2675.11L1294.6 2615.11zM1294.6 2675.11L1346.57 2705.11L1346.57 2765.11L1294.6 2795.11L1242.64 2765.11L1242.64 2705.11zM1398.53 -24.89L1450.49 5.11L1450.49 65.11L1398.53 95.11L1346.57 65.11L1346.57 5.11zM1398.53 155.11L1450.49 185.11L1450.49 245.11L1398.53 275.11L1346.57 245.11L1346.57 185.11zM1398.53 515.11L1450.49 545.11L1450.49 605.11L1398.53 635.11L1346.57 605.11L1346.57 545.11zM1450.49 785.11L1502.45 815.11L1502.45 875.11L1450.49 905.11L1398.53 875.11L1398.53 815.11zM1398.53 1235.11L1450.49 1265.11L1450.49 1325.11L1398.53 1355.11L1346.57 1325.11L1346.57 1265.11zM1398.53 1775.11L1450.49 1805.11L1450.49 1865.11L1398.53 1895.11L1346.57 1865.11L1346.57 1805.11zM1450.49 1865.11L1502.45 1895.11L1502.45 1955.11L1450.49 1985.11L1398.53 1955.11L1398.53 1895.11zM1450.49 2045.11L1502.45 2075.11L1502.45 2135.11L1450.49 2165.11L1398.53 2135.11L1398.53 2075.11zM1398.53 2135.11L1450.49 2165.11L1450.49 2225.11L1398.53 2255.11L1346.57 2225.11L1346.57 2165.11z" stroke="rgba(6, 80, 156, 0.93)" stroke-width="2"></path></g><defs><mask id="SvgjsMask1493"><rect width="1440" height="3000" fill="#ffffff"></rect></mask></defs></svg>