<svg xmlns="http://www.w3.org/2000/svg" version="1.1" xmlns:xlink="http://www.w3.org/1999/xlink" xmlns:svgjs="http://svgjs.dev/svgjs" width="1440" height="560" preserveAspectRatio="none" viewBox="0 0 1440 560"><g mask="url(&quot;#SvgjsMask1113&quot;)" fill="none"><rect width="1440" height="560" x="0" y="0" fill="rgba(75, 161, 185, 1)"></rect><path d="M0,509.379C98.956,513.09,198.291,491.677,282.61,439.75C367.887,387.233,433.278,307.973,474.933,216.895C516.603,125.785,537.048,23.871,517.778,-74.445C498.995,-170.277,433.033,-246.012,369.644,-320.298C305.806,-395.11,240.415,-471.021,148.819,-506.831C52.634,-544.435,-55.993,-557.101,-154.18,-525.088C-251.141,-493.474,-339.387,-424.565,-384.311,-333.007C-425.929,-248.187,-389.425,-149.67,-384.683,-55.309C-380.911,19.741,-377.087,91.083,-359.328,164.099C-337.588,253.483,-335.64,355.317,-269.31,419.054C-199.625,486.014,-96.574,505.758,0,509.379" fill="#4292a9"></path><path d="M1440 1030.643C1555.0430000000001 1048.104 1675.505 1141.1390000000001 1777.6109999999999 1085.333 1878.443 1030.223 1873.436 883.469 1909.124 774.242 1940.643 677.775 1984.684 584.13 1974.359 483.171 1963.792 379.85400000000004 1912.621 287.491 1850.807 204.034 1785.019 115.21199999999999 1717.443 2.7549999999999955 1607.854-11.657000000000039 1497.527-26.166000000000054 1417.072 89.73599999999999 1314.78 133.541 1228.294 170.57799999999997 1124.772 163.539 1053.995 225.52499999999998 978.69 291.476 938.127 387.20500000000004 914.164 484.396 888.37 589.013 864.745 704.297 912.084 801.091 959.136 897.297 1064.186 949.25 1162.399 991.956 1249.848 1029.981 1345.721 1016.3330000000001 1440 1030.643" fill="#5eabc0"></path></g><defs><mask id="SvgjsMask1113"><rect width="1440" height="560" fill="#ffffff"></rect></mask></defs></svg>