<svg xmlns="http://www.w3.org/2000/svg" version="1.1" xmlns:xlink="http://www.w3.org/1999/xlink" xmlns:svgjs="http://svgjs.dev/svgjs" width="1440" height="3000" preserveAspectRatio="none" viewBox="0 0 1440 3000"><g mask="url(&quot;#SvgjsMask1491&quot;)" fill="none"><rect width="1440" height="3000" x="0" y="0" fill="#0e2a47"></rect><path d="M85.95 2006.77L155.24 2046.77L155.24 2126.77L85.95 2166.77L16.67 2126.77L16.67 2046.77zM85.95 2246.77L155.24 2286.77L155.24 2366.77L85.95 2406.77L16.67 2366.77L16.67 2286.77zM85.95 2486.77L155.24 2526.77L155.24 2606.77L85.95 2646.77L16.67 2606.77L16.67 2526.77zM155.24 926.77L224.52 966.77L224.52 1046.77L155.24 1086.77L85.95 1046.77L85.95 966.77zM224.52 1286.77L293.81 1326.77L293.81 1406.77L224.52 1446.77L155.24 1406.77L155.24 1326.77zM224.52 1526.77L293.81 1566.77L293.81 1646.77L224.52 1686.77L155.24 1646.77L155.24 1566.77zM293.81 206.77L363.09 246.77L363.09 326.77L293.81 366.77L224.52 326.77L224.52 246.77zM363.09 566.77L432.37 606.77L432.37 686.77L363.09 726.77L293.81 686.77L293.81 606.77zM293.81 926.77L363.09 966.77L363.09 1046.77L293.81 1086.77L224.52 1046.77L224.52 966.77zM293.81 2366.77L363.09 2406.77L363.09 2486.77L293.81 2526.77L224.52 2486.77L224.52 2406.77zM363.09 2966.77L432.37 3006.77L432.37 3086.77L363.09 3126.77L293.81 3086.77L293.81 3006.77zM432.37 -33.23L501.66 6.77L501.66 86.77L432.37 126.77L363.09 86.77L363.09 6.77zM501.66 326.77L570.94 366.77L570.94 446.77L501.66 486.77L432.37 446.77L432.37 366.77zM501.66 1046.77L570.94 1086.77L570.94 1166.77L501.66 1206.77L432.37 1166.77L432.37 1086.77zM432.37 1886.77L501.66 1926.77L501.66 2006.77L432.37 2046.77L363.09 2006.77L363.09 1926.77zM432.37 2606.77L501.66 2646.77L501.66 2726.77L432.37 2766.77L363.09 2726.77L363.09 2646.77zM570.94 206.77L640.23 246.77L640.23 326.77L570.94 366.77L501.66 326.77L501.66 246.77zM570.94 686.77L640.23 726.77L640.23 806.77L570.94 846.77L501.66 806.77L501.66 726.77zM640.23 806.77L709.51 846.77L709.51 926.77L640.23 966.77L570.94 926.77L570.94 846.77zM640.23 2006.77L709.51 2046.77L709.51 2126.77L640.23 2166.77L570.94 2126.77L570.94 2046.77zM640.23 2966.77L709.51 3006.77L709.51 3086.77L640.23 3126.77L570.94 3086.77L570.94 3006.77zM778.79 86.77L848.08 126.77L848.08 206.77L778.79 246.77L709.51 206.77L709.51 126.77zM778.79 1526.77L848.08 1566.77L848.08 1646.77L778.79 1686.77L709.51 1646.77L709.51 1566.77zM709.51 1646.77L778.79 1686.77L778.79 1766.77L709.51 1806.77L640.23 1766.77L640.23 1686.77zM778.79 1766.77L848.08 1806.77L848.08 1886.77L778.79 1926.77L709.51 1886.77L709.51 1806.77zM709.51 2606.77L778.79 2646.77L778.79 2726.77L709.51 2766.77L640.23 2726.77L640.23 2646.77zM709.51 2846.77L778.79 2886.77L778.79 2966.77L709.51 3006.77L640.23 2966.77L640.23 2886.77zM917.36 566.77L986.65 606.77L986.65 686.77L917.36 726.77L848.08 686.77L848.08 606.77zM848.08 686.77L917.36 726.77L917.36 806.77L848.08 846.77L778.79 806.77L778.79 726.77zM917.36 1766.77L986.65 1806.77L986.65 1886.77L917.36 1926.77L848.08 1886.77L848.08 1806.77zM848.08 2606.77L917.36 2646.77L917.36 2726.77L848.08 2766.77L778.79 2726.77L778.79 2646.77zM1055.93 2726.77L1125.21 2766.77L1125.21 2846.77L1055.93 2886.77L986.65 2846.77L986.65 2766.77zM986.65 2846.77L1055.93 2886.77L1055.93 2966.77L986.65 3006.77L917.36 2966.77L917.36 2886.77zM1125.21 206.77L1194.5 246.77L1194.5 326.77L1125.21 366.77L1055.93 326.77L1055.93 246.77zM1125.21 1166.77L1194.5 1206.77L1194.5 1286.77L1125.21 1326.77L1055.93 1286.77L1055.93 1206.77zM1194.5 2006.77L1263.78 2046.77L1263.78 2126.77L1194.5 2166.77L1125.21 2126.77L1125.21 2046.77zM1125.21 2126.77L1194.5 2166.77L1194.5 2246.77L1125.21 2286.77L1055.93 2246.77L1055.93 2166.77zM1125.21 2366.77L1194.5 2406.77L1194.5 2486.77L1125.21 2526.77L1055.93 2486.77L1055.93 2406.77zM1194.5 2726.77L1263.78 2766.77L1263.78 2846.77L1194.5 2886.77L1125.21 2846.77L1125.21 2766.77zM1263.78 -33.23L1333.07 6.77L1333.07 86.77L1263.78 126.77L1194.5 86.77L1194.5 6.77zM1263.78 446.77L1333.07 486.77L1333.07 566.77L1263.78 606.77L1194.5 566.77L1194.5 486.77zM1333.07 566.77L1402.35 606.77L1402.35 686.77L1333.07 726.77L1263.78 686.77L1263.78 606.77zM1263.78 1166.77L1333.07 1206.77L1333.07 1286.77L1263.78 1326.77L1194.5 1286.77L1194.5 1206.77zM1402.35 206.77L1471.63 246.77L1471.63 326.77L1402.35 366.77L1333.07 326.77L1333.07 246.77zM1471.63 1766.77L1540.92 1806.77L1540.92 1886.77L1471.63 1926.77L1402.35 1886.77L1402.35 1806.77zM1471.63 2726.77L1540.92 2766.77L1540.92 2846.77L1471.63 2886.77L1402.35 2846.77L1402.35 2766.77zM1471.63 2966.77L1540.92 3006.77L1540.92 3086.77L1471.63 3126.77L1402.35 3086.77L1402.35 3006.77z" stroke="#03305d" stroke-width="2"></path><path d="M77.95 2006.77 a8 8 0 1 0 16 0 a8 8 0 1 0 -16 0zM147.24 2046.77 a8 8 0 1 0 16 0 a8 8 0 1 0 -16 0zM147.24 2126.77 a8 8 0 1 0 16 0 a8 8 0 1 0 -16 0zM77.95 2166.77 a8 8 0 1 0 16 0 a8 8 0 1 0 -16 0zM8.67 2126.77 a8 8 0 1 0 16 0 a8 8 0 1 0 -16 0zM8.67 2046.77 a8 8 0 1 0 16 0 a8 8 0 1 0 -16 0zM77.95 2246.77 a8 8 0 1 0 16 0 a8 8 0 1 0 -16 0zM147.24 2286.77 a8 8 0 1 0 16 0 a8 8 0 1 0 -16 0zM147.24 2366.77 a8 8 0 1 0 16 0 a8 8 0 1 0 -16 0zM77.95 2406.77 a8 8 0 1 0 16 0 a8 8 0 1 0 -16 0zM8.67 2366.77 a8 8 0 1 0 16 0 a8 8 0 1 0 -16 0zM8.67 2286.77 a8 8 0 1 0 16 0 a8 8 0 1 0 -16 0zM77.95 2486.77 a8 8 0 1 0 16 0 a8 8 0 1 0 -16 0zM147.24 2526.77 a8 8 0 1 0 16 0 a8 8 0 1 0 -16 0zM147.24 2606.77 a8 8 0 1 0 16 0 a8 8 0 1 0 -16 0zM77.95 2646.77 a8 8 0 1 0 16 0 a8 8 0 1 0 -16 0zM8.67 2606.77 a8 8 0 1 0 16 0 a8 8 0 1 0 -16 0zM8.67 2526.77 a8 8 0 1 0 16 0 a8 8 0 1 0 -16 0zM147.24 926.77 a8 8 0 1 0 16 0 a8 8 0 1 0 -16 0zM216.52 966.77 a8 8 0 1 0 16 0 a8 8 0 1 0 -16 0zM216.52 1046.77 a8 8 0 1 0 16 0 a8 8 0 1 0 -16 0zM147.24 1086.77 a8 8 0 1 0 16 0 a8 8 0 1 0 -16 0zM77.95 1046.77 a8 8 0 1 0 16 0 a8 8 0 1 0 -16 0zM77.95 966.77 a8 8 0 1 0 16 0 a8 8 0 1 0 -16 0zM216.52 1286.77 a8 8 0 1 0 16 0 a8 8 0 1 0 -16 0zM285.81 1326.77 a8 8 0 1 0 16 0 a8 8 0 1 0 -16 0zM285.81 1406.77 a8 8 0 1 0 16 0 a8 8 0 1 0 -16 0zM216.52 1446.77 a8 8 0 1 0 16 0 a8 8 0 1 0 -16 0zM147.24 1406.77 a8 8 0 1 0 16 0 a8 8 0 1 0 -16 0zM147.24 1326.77 a8 8 0 1 0 16 0 a8 8 0 1 0 -16 0zM216.52 1526.77 a8 8 0 1 0 16 0 a8 8 0 1 0 -16 0zM285.81 1566.77 a8 8 0 1 0 16 0 a8 8 0 1 0 -16 0zM285.81 1646.77 a8 8 0 1 0 16 0 a8 8 0 1 0 -16 0zM216.52 1686.77 a8 8 0 1 0 16 0 a8 8 0 1 0 -16 0zM147.24 1646.77 a8 8 0 1 0 16 0 a8 8 0 1 0 -16 0zM147.24 1566.77 a8 8 0 1 0 16 0 a8 8 0 1 0 -16 0zM285.81 206.77 a8 8 0 1 0 16 0 a8 8 0 1 0 -16 0zM355.09 246.77 a8 8 0 1 0 16 0 a8 8 0 1 0 -16 0zM355.09 326.77 a8 8 0 1 0 16 0 a8 8 0 1 0 -16 0zM285.81 366.77 a8 8 0 1 0 16 0 a8 8 0 1 0 -16 0zM216.52 326.77 a8 8 0 1 0 16 0 a8 8 0 1 0 -16 0zM216.52 246.77 a8 8 0 1 0 16 0 a8 8 0 1 0 -16 0zM355.09 566.77 a8 8 0 1 0 16 0 a8 8 0 1 0 -16 0zM424.37 606.77 a8 8 0 1 0 16 0 a8 8 0 1 0 -16 0zM424.37 686.77 a8 8 0 1 0 16 0 a8 8 0 1 0 -16 0zM355.09 726.77 a8 8 0 1 0 16 0 a8 8 0 1 0 -16 0zM285.81 686.77 a8 8 0 1 0 16 0 a8 8 0 1 0 -16 0zM285.81 606.77 a8 8 0 1 0 16 0 a8 8 0 1 0 -16 0zM285.81 926.77 a8 8 0 1 0 16 0 a8 8 0 1 0 -16 0zM355.09 966.77 a8 8 0 1 0 16 0 a8 8 0 1 0 -16 0zM355.09 1046.77 a8 8 0 1 0 16 0 a8 8 0 1 0 -16 0zM285.81 1086.77 a8 8 0 1 0 16 0 a8 8 0 1 0 -16 0zM285.81 2366.77 a8 8 0 1 0 16 0 a8 8 0 1 0 -16 0zM355.09 2406.77 a8 8 0 1 0 16 0 a8 8 0 1 0 -16 0zM355.09 2486.77 a8 8 0 1 0 16 0 a8 8 0 1 0 -16 0zM285.81 2526.77 a8 8 0 1 0 16 0 a8 8 0 1 0 -16 0zM216.52 2486.77 a8 8 0 1 0 16 0 a8 8 0 1 0 -16 0zM216.52 2406.77 a8 8 0 1 0 16 0 a8 8 0 1 0 -16 0zM355.09 2966.77 a8 8 0 1 0 16 0 a8 8 0 1 0 -16 0zM424.37 3006.77 a8 8 0 1 0 16 0 a8 8 0 1 0 -16 0zM424.37 3086.77 a8 8 0 1 0 16 0 a8 8 0 1 0 -16 0zM355.09 3126.77 a8 8 0 1 0 16 0 a8 8 0 1 0 -16 0zM285.81 3086.77 a8 8 0 1 0 16 0 a8 8 0 1 0 -16 0zM285.81 3006.77 a8 8 0 1 0 16 0 a8 8 0 1 0 -16 0zM424.37 -33.23 a8 8 0 1 0 16 0 a8 8 0 1 0 -16 0zM493.66 6.77 a8 8 0 1 0 16 0 a8 8 0 1 0 -16 0zM493.66 86.77 a8 8 0 1 0 16 0 a8 8 0 1 0 -16 0zM424.37 126.77 a8 8 0 1 0 16 0 a8 8 0 1 0 -16 0zM355.09 86.77 a8 8 0 1 0 16 0 a8 8 0 1 0 -16 0zM355.09 6.77 a8 8 0 1 0 16 0 a8 8 0 1 0 -16 0zM493.66 326.77 a8 8 0 1 0 16 0 a8 8 0 1 0 -16 0zM562.94 366.77 a8 8 0 1 0 16 0 a8 8 0 1 0 -16 0zM562.94 446.77 a8 8 0 1 0 16 0 a8 8 0 1 0 -16 0zM493.66 486.77 a8 8 0 1 0 16 0 a8 8 0 1 0 -16 0zM424.37 446.77 a8 8 0 1 0 16 0 a8 8 0 1 0 -16 0zM424.37 366.77 a8 8 0 1 0 16 0 a8 8 0 1 0 -16 0zM493.66 1046.77 a8 8 0 1 0 16 0 a8 8 0 1 0 -16 0zM562.94 1086.77 a8 8 0 1 0 16 0 a8 8 0 1 0 -16 0zM562.94 1166.77 a8 8 0 1 0 16 0 a8 8 0 1 0 -16 0zM493.66 1206.77 a8 8 0 1 0 16 0 a8 8 0 1 0 -16 0zM424.37 1166.77 a8 8 0 1 0 16 0 a8 8 0 1 0 -16 0zM424.37 1086.77 a8 8 0 1 0 16 0 a8 8 0 1 0 -16 0zM424.37 1886.77 a8 8 0 1 0 16 0 a8 8 0 1 0 -16 0zM493.66 1926.77 a8 8 0 1 0 16 0 a8 8 0 1 0 -16 0zM493.66 2006.77 a8 8 0 1 0 16 0 a8 8 0 1 0 -16 0zM424.37 2046.77 a8 8 0 1 0 16 0 a8 8 0 1 0 -16 0zM355.09 2006.77 a8 8 0 1 0 16 0 a8 8 0 1 0 -16 0zM355.09 1926.77 a8 8 0 1 0 16 0 a8 8 0 1 0 -16 0zM424.37 2606.77 a8 8 0 1 0 16 0 a8 8 0 1 0 -16 0zM493.66 2646.77 a8 8 0 1 0 16 0 a8 8 0 1 0 -16 0zM493.66 2726.77 a8 8 0 1 0 16 0 a8 8 0 1 0 -16 0zM424.37 2766.77 a8 8 0 1 0 16 0 a8 8 0 1 0 -16 0zM355.09 2726.77 a8 8 0 1 0 16 0 a8 8 0 1 0 -16 0zM355.09 2646.77 a8 8 0 1 0 16 0 a8 8 0 1 0 -16 0zM562.94 206.77 a8 8 0 1 0 16 0 a8 8 0 1 0 -16 0zM632.23 246.77 a8 8 0 1 0 16 0 a8 8 0 1 0 -16 0zM632.23 326.77 a8 8 0 1 0 16 0 a8 8 0 1 0 -16 0zM493.66 246.77 a8 8 0 1 0 16 0 a8 8 0 1 0 -16 0zM562.94 686.77 a8 8 0 1 0 16 0 a8 8 0 1 0 -16 0zM632.23 726.77 a8 8 0 1 0 16 0 a8 8 0 1 0 -16 0zM632.23 806.77 a8 8 0 1 0 16 0 a8 8 0 1 0 -16 0zM562.94 846.77 a8 8 0 1 0 16 0 a8 8 0 1 0 -16 0zM493.66 806.77 a8 8 0 1 0 16 0 a8 8 0 1 0 -16 0zM493.66 726.77 a8 8 0 1 0 16 0 a8 8 0 1 0 -16 0zM701.51 846.77 a8 8 0 1 0 16 0 a8 8 0 1 0 -16 0zM701.51 926.77 a8 8 0 1 0 16 0 a8 8 0 1 0 -16 0zM632.23 966.77 a8 8 0 1 0 16 0 a8 8 0 1 0 -16 0zM562.94 926.77 a8 8 0 1 0 16 0 a8 8 0 1 0 -16 0zM632.23 2006.77 a8 8 0 1 0 16 0 a8 8 0 1 0 -16 0zM701.51 2046.77 a8 8 0 1 0 16 0 a8 8 0 1 0 -16 0zM701.51 2126.77 a8 8 0 1 0 16 0 a8 8 0 1 0 -16 0zM632.23 2166.77 a8 8 0 1 0 16 0 a8 8 0 1 0 -16 0zM562.94 2126.77 a8 8 0 1 0 16 0 a8 8 0 1 0 -16 0zM562.94 2046.77 a8 8 0 1 0 16 0 a8 8 0 1 0 -16 0zM632.23 2966.77 a8 8 0 1 0 16 0 a8 8 0 1 0 -16 0zM701.51 3006.77 a8 8 0 1 0 16 0 a8 8 0 1 0 -16 0zM701.51 3086.77 a8 8 0 1 0 16 0 a8 8 0 1 0 -16 0zM632.23 3126.77 a8 8 0 1 0 16 0 a8 8 0 1 0 -16 0zM562.94 3086.77 a8 8 0 1 0 16 0 a8 8 0 1 0 -16 0zM562.94 3006.77 a8 8 0 1 0 16 0 a8 8 0 1 0 -16 0zM770.79 86.77 a8 8 0 1 0 16 0 a8 8 0 1 0 -16 0zM840.08 126.77 a8 8 0 1 0 16 0 a8 8 0 1 0 -16 0zM840.08 206.77 a8 8 0 1 0 16 0 a8 8 0 1 0 -16 0zM770.79 246.77 a8 8 0 1 0 16 0 a8 8 0 1 0 -16 0zM701.51 206.77 a8 8 0 1 0 16 0 a8 8 0 1 0 -16 0zM701.51 126.77 a8 8 0 1 0 16 0 a8 8 0 1 0 -16 0zM770.79 1526.77 a8 8 0 1 0 16 0 a8 8 0 1 0 -16 0zM840.08 1566.77 a8 8 0 1 0 16 0 a8 8 0 1 0 -16 0zM840.08 1646.77 a8 8 0 1 0 16 0 a8 8 0 1 0 -16 0zM770.79 1686.77 a8 8 0 1 0 16 0 a8 8 0 1 0 -16 0zM701.51 1646.77 a8 8 0 1 0 16 0 a8 8 0 1 0 -16 0zM701.51 1566.77 a8 8 0 1 0 16 0 a8 8 0 1 0 -16 0zM770.79 1766.77 a8 8 0 1 0 16 0 a8 8 0 1 0 -16 0zM701.51 1806.77 a8 8 0 1 0 16 0 a8 8 0 1 0 -16 0zM632.23 1766.77 a8 8 0 1 0 16 0 a8 8 0 1 0 -16 0zM632.23 1686.77 a8 8 0 1 0 16 0 a8 8 0 1 0 -16 0zM840.08 1806.77 a8 8 0 1 0 16 0 a8 8 0 1 0 -16 0zM840.08 1886.77 a8 8 0 1 0 16 0 a8 8 0 1 0 -16 0zM770.79 1926.77 a8 8 0 1 0 16 0 a8 8 0 1 0 -16 0zM701.51 1886.77 a8 8 0 1 0 16 0 a8 8 0 1 0 -16 0zM701.51 2606.77 a8 8 0 1 0 16 0 a8 8 0 1 0 -16 0zM770.79 2646.77 a8 8 0 1 0 16 0 a8 8 0 1 0 -16 0zM770.79 2726.77 a8 8 0 1 0 16 0 a8 8 0 1 0 -16 0zM701.51 2766.77 a8 8 0 1 0 16 0 a8 8 0 1 0 -16 0zM632.23 2726.77 a8 8 0 1 0 16 0 a8 8 0 1 0 -16 0zM632.23 2646.77 a8 8 0 1 0 16 0 a8 8 0 1 0 -16 0zM701.51 2846.77 a8 8 0 1 0 16 0 a8 8 0 1 0 -16 0zM770.79 2886.77 a8 8 0 1 0 16 0 a8 8 0 1 0 -16 0zM770.79 2966.77 a8 8 0 1 0 16 0 a8 8 0 1 0 -16 0zM632.23 2886.77 a8 8 0 1 0 16 0 a8 8 0 1 0 -16 0zM909.36 566.77 a8 8 0 1 0 16 0 a8 8 0 1 0 -16 0zM978.65 606.77 a8 8 0 1 0 16 0 a8 8 0 1 0 -16 0zM978.65 686.77 a8 8 0 1 0 16 0 a8 8 0 1 0 -16 0zM909.36 726.77 a8 8 0 1 0 16 0 a8 8 0 1 0 -16 0zM840.08 686.77 a8 8 0 1 0 16 0 a8 8 0 1 0 -16 0zM840.08 606.77 a8 8 0 1 0 16 0 a8 8 0 1 0 -16 0zM909.36 806.77 a8 8 0 1 0 16 0 a8 8 0 1 0 -16 0zM840.08 846.77 a8 8 0 1 0 16 0 a8 8 0 1 0 -16 0zM770.79 806.77 a8 8 0 1 0 16 0 a8 8 0 1 0 -16 0zM770.79 726.77 a8 8 0 1 0 16 0 a8 8 0 1 0 -16 0zM909.36 1766.77 a8 8 0 1 0 16 0 a8 8 0 1 0 -16 0zM978.65 1806.77 a8 8 0 1 0 16 0 a8 8 0 1 0 -16 0zM978.65 1886.77 a8 8 0 1 0 16 0 a8 8 0 1 0 -16 0zM909.36 1926.77 a8 8 0 1 0 16 0 a8 8 0 1 0 -16 0zM840.08 2606.77 a8 8 0 1 0 16 0 a8 8 0 1 0 -16 0zM909.36 2646.77 a8 8 0 1 0 16 0 a8 8 0 1 0 -16 0zM909.36 2726.77 a8 8 0 1 0 16 0 a8 8 0 1 0 -16 0zM840.08 2766.77 a8 8 0 1 0 16 0 a8 8 0 1 0 -16 0zM1047.93 2726.77 a8 8 0 1 0 16 0 a8 8 0 1 0 -16 0zM1117.21 2766.77 a8 8 0 1 0 16 0 a8 8 0 1 0 -16 0zM1117.21 2846.77 a8 8 0 1 0 16 0 a8 8 0 1 0 -16 0zM1047.93 2886.77 a8 8 0 1 0 16 0 a8 8 0 1 0 -16 0zM978.65 2846.77 a8 8 0 1 0 16 0 a8 8 0 1 0 -16 0zM978.65 2766.77 a8 8 0 1 0 16 0 a8 8 0 1 0 -16 0zM1047.93 2966.77 a8 8 0 1 0 16 0 a8 8 0 1 0 -16 0zM978.65 3006.77 a8 8 0 1 0 16 0 a8 8 0 1 0 -16 0zM909.36 2966.77 a8 8 0 1 0 16 0 a8 8 0 1 0 -16 0zM909.36 2886.77 a8 8 0 1 0 16 0 a8 8 0 1 0 -16 0zM1117.21 206.77 a8 8 0 1 0 16 0 a8 8 0 1 0 -16 0zM1186.5 246.77 a8 8 0 1 0 16 0 a8 8 0 1 0 -16 0zM1186.5 326.77 a8 8 0 1 0 16 0 a8 8 0 1 0 -16 0zM1117.21 366.77 a8 8 0 1 0 16 0 a8 8 0 1 0 -16 0zM1047.93 326.77 a8 8 0 1 0 16 0 a8 8 0 1 0 -16 0zM1047.93 246.77 a8 8 0 1 0 16 0 a8 8 0 1 0 -16 0zM1117.21 1166.77 a8 8 0 1 0 16 0 a8 8 0 1 0 -16 0zM1186.5 1206.77 a8 8 0 1 0 16 0 a8 8 0 1 0 -16 0zM1186.5 1286.77 a8 8 0 1 0 16 0 a8 8 0 1 0 -16 0zM1117.21 1326.77 a8 8 0 1 0 16 0 a8 8 0 1 0 -16 0zM1047.93 1286.77 a8 8 0 1 0 16 0 a8 8 0 1 0 -16 0zM1047.93 1206.77 a8 8 0 1 0 16 0 a8 8 0 1 0 -16 0zM1186.5 2006.77 a8 8 0 1 0 16 0 a8 8 0 1 0 -16 0zM1255.78 2046.77 a8 8 0 1 0 16 0 a8 8 0 1 0 -16 0zM1255.78 2126.77 a8 8 0 1 0 16 0 a8 8 0 1 0 -16 0zM1186.5 2166.77 a8 8 0 1 0 16 0 a8 8 0 1 0 -16 0zM1117.21 2126.77 a8 8 0 1 0 16 0 a8 8 0 1 0 -16 0zM1117.21 2046.77 a8 8 0 1 0 16 0 a8 8 0 1 0 -16 0zM1186.5 2246.77 a8 8 0 1 0 16 0 a8 8 0 1 0 -16 0zM1117.21 2286.77 a8 8 0 1 0 16 0 a8 8 0 1 0 -16 0zM1047.93 2246.77 a8 8 0 1 0 16 0 a8 8 0 1 0 -16 0zM1047.93 2166.77 a8 8 0 1 0 16 0 a8 8 0 1 0 -16 0zM1117.21 2366.77 a8 8 0 1 0 16 0 a8 8 0 1 0 -16 0zM1186.5 2406.77 a8 8 0 1 0 16 0 a8 8 0 1 0 -16 0zM1186.5 2486.77 a8 8 0 1 0 16 0 a8 8 0 1 0 -16 0zM1117.21 2526.77 a8 8 0 1 0 16 0 a8 8 0 1 0 -16 0zM1047.93 2486.77 a8 8 0 1 0 16 0 a8 8 0 1 0 -16 0zM1047.93 2406.77 a8 8 0 1 0 16 0 a8 8 0 1 0 -16 0zM1186.5 2726.77 a8 8 0 1 0 16 0 a8 8 0 1 0 -16 0zM1255.78 2766.77 a8 8 0 1 0 16 0 a8 8 0 1 0 -16 0zM1255.78 2846.77 a8 8 0 1 0 16 0 a8 8 0 1 0 -16 0zM1186.5 2886.77 a8 8 0 1 0 16 0 a8 8 0 1 0 -16 0zM1255.78 -33.23 a8 8 0 1 0 16 0 a8 8 0 1 0 -16 0zM1325.07 6.77 a8 8 0 1 0 16 0 a8 8 0 1 0 -16 0zM1325.07 86.77 a8 8 0 1 0 16 0 a8 8 0 1 0 -16 0zM1255.78 126.77 a8 8 0 1 0 16 0 a8 8 0 1 0 -16 0zM1186.5 86.77 a8 8 0 1 0 16 0 a8 8 0 1 0 -16 0zM1186.5 6.77 a8 8 0 1 0 16 0 a8 8 0 1 0 -16 0zM1255.78 446.77 a8 8 0 1 0 16 0 a8 8 0 1 0 -16 0zM1325.07 486.77 a8 8 0 1 0 16 0 a8 8 0 1 0 -16 0zM1325.07 566.77 a8 8 0 1 0 16 0 a8 8 0 1 0 -16 0zM1255.78 606.77 a8 8 0 1 0 16 0 a8 8 0 1 0 -16 0zM1186.5 566.77 a8 8 0 1 0 16 0 a8 8 0 1 0 -16 0zM1186.5 486.77 a8 8 0 1 0 16 0 a8 8 0 1 0 -16 0zM1394.35 606.77 a8 8 0 1 0 16 0 a8 8 0 1 0 -16 0zM1394.35 686.77 a8 8 0 1 0 16 0 a8 8 0 1 0 -16 0zM1325.07 726.77 a8 8 0 1 0 16 0 a8 8 0 1 0 -16 0zM1255.78 686.77 a8 8 0 1 0 16 0 a8 8 0 1 0 -16 0zM1255.78 1166.77 a8 8 0 1 0 16 0 a8 8 0 1 0 -16 0zM1325.07 1206.77 a8 8 0 1 0 16 0 a8 8 0 1 0 -16 0zM1325.07 1286.77 a8 8 0 1 0 16 0 a8 8 0 1 0 -16 0zM1255.78 1326.77 a8 8 0 1 0 16 0 a8 8 0 1 0 -16 0zM1394.35 206.77 a8 8 0 1 0 16 0 a8 8 0 1 0 -16 0zM1463.63 246.77 a8 8 0 1 0 16 0 a8 8 0 1 0 -16 0zM1463.63 326.77 a8 8 0 1 0 16 0 a8 8 0 1 0 -16 0zM1394.35 366.77 a8 8 0 1 0 16 0 a8 8 0 1 0 -16 0zM1325.07 326.77 a8 8 0 1 0 16 0 a8 8 0 1 0 -16 0zM1325.07 246.77 a8 8 0 1 0 16 0 a8 8 0 1 0 -16 0zM1463.63 1766.77 a8 8 0 1 0 16 0 a8 8 0 1 0 -16 0zM1532.92 1806.77 a8 8 0 1 0 16 0 a8 8 0 1 0 -16 0zM1532.92 1886.77 a8 8 0 1 0 16 0 a8 8 0 1 0 -16 0zM1463.63 1926.77 a8 8 0 1 0 16 0 a8 8 0 1 0 -16 0zM1394.35 1886.77 a8 8 0 1 0 16 0 a8 8 0 1 0 -16 0zM1394.35 1806.77 a8 8 0 1 0 16 0 a8 8 0 1 0 -16 0zM1463.63 2726.77 a8 8 0 1 0 16 0 a8 8 0 1 0 -16 0zM1532.92 2766.77 a8 8 0 1 0 16 0 a8 8 0 1 0 -16 0zM1532.92 2846.77 a8 8 0 1 0 16 0 a8 8 0 1 0 -16 0zM1463.63 2886.77 a8 8 0 1 0 16 0 a8 8 0 1 0 -16 0zM1394.35 2846.77 a8 8 0 1 0 16 0 a8 8 0 1 0 -16 0zM1394.35 2766.77 a8 8 0 1 0 16 0 a8 8 0 1 0 -16 0zM1463.63 2966.77 a8 8 0 1 0 16 0 a8 8 0 1 0 -16 0zM1532.92 3006.77 a8 8 0 1 0 16 0 a8 8 0 1 0 -16 0zM1532.92 3086.77 a8 8 0 1 0 16 0 a8 8 0 1 0 -16 0zM1463.63 3126.77 a8 8 0 1 0 16 0 a8 8 0 1 0 -16 0zM1394.35 3086.77 a8 8 0 1 0 16 0 a8 8 0 1 0 -16 0zM1394.35 3006.77 a8 8 0 1 0 16 0 a8 8 0 1 0 -16 0z" fill="#03305d"></path><path d="M81.56 40.27L133.53 70.27L133.53 130.27L81.56 160.27L29.6 130.27L29.6 70.27zM81.56 580.27L133.53 610.27L133.53 670.27L81.56 700.27L29.6 670.27L29.6 610.27zM81.56 1120.27L133.53 1150.27L133.53 1210.27L81.56 1240.27L29.6 1210.27L29.6 1150.27zM29.6 1210.27L81.56 1240.27L81.56 1300.27L29.6 1330.27L-22.36 1300.27L-22.36 1240.27zM81.56 1480.27L133.53 1510.27L133.53 1570.27L81.56 1600.27L29.6 1570.27L29.6 1510.27zM29.6 1570.27L81.56 1600.27L81.56 1660.27L29.6 1690.27L-22.36 1660.27L-22.36 1600.27zM81.56 2020.27L133.53 2050.27L133.53 2110.27L81.56 2140.27L29.6 2110.27L29.6 2050.27zM81.56 2200.27L133.53 2230.27L133.53 2290.27L81.56 2320.27L29.6 2290.27L29.6 2230.27zM81.56 2380.27L133.53 2410.27L133.53 2470.27L81.56 2500.27L29.6 2470.27L29.6 2410.27zM29.6 2470.27L81.56 2500.27L81.56 2560.27L29.6 2590.27L-22.36 2560.27L-22.36 2500.27zM29.6 2650.27L81.56 2680.27L81.56 2740.27L29.6 2770.27L-22.36 2740.27L-22.36 2680.27zM81.56 2740.27L133.53 2770.27L133.53 2830.27L81.56 2860.27L29.6 2830.27L29.6 2770.27zM29.6 2830.27L81.56 2860.27L81.56 2920.27L29.6 2950.27L-22.36 2920.27L-22.36 2860.27zM81.56 2920.27L133.53 2950.27L133.53 3010.27L81.56 3040.27L29.6 3010.27L29.6 2950.27zM185.49 220.27L237.45 250.27L237.45 310.27L185.49 340.27L133.53 310.27L133.53 250.27zM185.49 580.27L237.45 610.27L237.45 670.27L185.49 700.27L133.53 670.27L133.53 610.27zM133.53 670.27L185.49 700.27L185.49 760.27L133.53 790.27L81.56 760.27L81.56 700.27zM185.49 760.27L237.45 790.27L237.45 850.27L185.49 880.27L133.53 850.27L133.53 790.27zM185.49 940.27L237.45 970.27L237.45 1030.27L185.49 1060.27L133.53 1030.27L133.53 970.27zM185.49 1120.27L237.45 1150.27L237.45 1210.27L185.49 1240.27L133.53 1210.27L133.53 1150.27zM133.53 1390.27L185.49 1420.27L185.49 1480.27L133.53 1510.27L81.56 1480.27L81.56 1420.27zM185.49 1480.27L237.45 1510.27L237.45 1570.27L185.49 1600.27L133.53 1570.27L133.53 1510.27zM133.53 1750.27L185.49 1780.27L185.49 1840.27L133.53 1870.27L81.56 1840.27L81.56 1780.27zM133.53 1930.27L185.49 1960.27L185.49 2020.27L133.53 2050.27L81.56 2020.27L81.56 1960.27zM185.49 2020.27L237.45 2050.27L237.45 2110.27L185.49 2140.27L133.53 2110.27L133.53 2050.27zM133.53 2110.27L185.49 2140.27L185.49 2200.27L133.53 2230.27L81.56 2200.27L81.56 2140.27zM133.53 2830.27L185.49 2860.27L185.49 2920.27L133.53 2950.27L81.56 2920.27L81.56 2860.27zM289.42 40.27L341.38 70.27L341.38 130.27L289.42 160.27L237.45 130.27L237.45 70.27zM237.45 130.27L289.42 160.27L289.42 220.27L237.45 250.27L185.49 220.27L185.49 160.27zM289.42 220.27L341.38 250.27L341.38 310.27L289.42 340.27L237.45 310.27L237.45 250.27zM289.42 400.27L341.38 430.27L341.38 490.27L289.42 520.27L237.45 490.27L237.45 430.27zM237.45 1030.27L289.42 1060.27L289.42 1120.27L237.45 1150.27L185.49 1120.27L185.49 1060.27zM237.45 1210.27L289.42 1240.27L289.42 1300.27L237.45 1330.27L185.49 1300.27L185.49 1240.27zM237.45 1390.27L289.42 1420.27L289.42 1480.27L237.45 1510.27L185.49 1480.27L185.49 1420.27zM237.45 1570.27L289.42 1600.27L289.42 1660.27L237.45 1690.27L185.49 1660.27L185.49 1600.27zM289.42 1660.27L341.38 1690.27L341.38 1750.27L289.42 1780.27L237.45 1750.27L237.45 1690.27zM237.45 1750.27L289.42 1780.27L289.42 1840.27L237.45 1870.27L185.49 1840.27L185.49 1780.27zM289.42 2200.27L341.38 2230.27L341.38 2290.27L289.42 2320.27L237.45 2290.27L237.45 2230.27zM289.42 2380.27L341.38 2410.27L341.38 2470.27L289.42 2500.27L237.45 2470.27L237.45 2410.27zM237.45 2470.27L289.42 2500.27L289.42 2560.27L237.45 2590.27L185.49 2560.27L185.49 2500.27zM289.42 2560.27L341.38 2590.27L341.38 2650.27L289.42 2680.27L237.45 2650.27L237.45 2590.27zM237.45 2650.27L289.42 2680.27L289.42 2740.27L237.45 2770.27L185.49 2740.27L185.49 2680.27zM289.42 2740.27L341.38 2770.27L341.38 2830.27L289.42 2860.27L237.45 2830.27L237.45 2770.27zM289.42 2920.27L341.38 2950.27L341.38 3010.27L289.42 3040.27L237.45 3010.27L237.45 2950.27zM393.34 400.27L445.3 430.27L445.3 490.27L393.34 520.27L341.38 490.27L341.38 430.27zM393.34 760.27L445.3 790.27L445.3 850.27L393.34 880.27L341.38 850.27L341.38 790.27zM341.38 850.27L393.34 880.27L393.34 940.27L341.38 970.27L289.42 940.27L289.42 880.27zM341.38 1210.27L393.34 1240.27L393.34 1300.27L341.38 1330.27L289.42 1300.27L289.42 1240.27zM393.34 1300.27L445.3 1330.27L445.3 1390.27L393.34 1420.27L341.38 1390.27L341.38 1330.27zM341.38 1750.27L393.34 1780.27L393.34 1840.27L341.38 1870.27L289.42 1840.27L289.42 1780.27zM393.34 2020.27L445.3 2050.27L445.3 2110.27L393.34 2140.27L341.38 2110.27L341.38 2050.27zM341.38 2110.27L393.34 2140.27L393.34 2200.27L341.38 2230.27L289.42 2200.27L289.42 2140.27zM393.34 2200.27L445.3 2230.27L445.3 2290.27L393.34 2320.27L341.38 2290.27L341.38 2230.27zM341.38 2650.27L393.34 2680.27L393.34 2740.27L341.38 2770.27L289.42 2740.27L289.42 2680.27zM393.34 2740.27L445.3 2770.27L445.3 2830.27L393.34 2860.27L341.38 2830.27L341.38 2770.27zM393.34 2920.27L445.3 2950.27L445.3 3010.27L393.34 3040.27L341.38 3010.27L341.38 2950.27zM445.3 130.27L497.27 160.27L497.27 220.27L445.3 250.27L393.34 220.27L393.34 160.27zM445.3 310.27L497.27 340.27L497.27 400.27L445.3 430.27L393.34 400.27L393.34 340.27zM445.3 490.27L497.27 520.27L497.27 580.27L445.3 610.27L393.34 580.27L393.34 520.27zM445.3 670.27L497.27 700.27L497.27 760.27L445.3 790.27L393.34 760.27L393.34 700.27zM445.3 850.27L497.27 880.27L497.27 940.27L445.3 970.27L393.34 940.27L393.34 880.27zM445.3 1030.27L497.27 1060.27L497.27 1120.27L445.3 1150.27L393.34 1120.27L393.34 1060.27zM445.3 1210.27L497.27 1240.27L497.27 1300.27L445.3 1330.27L393.34 1300.27L393.34 1240.27zM445.3 1390.27L497.27 1420.27L497.27 1480.27L445.3 1510.27L393.34 1480.27L393.34 1420.27zM445.3 1570.27L497.27 1600.27L497.27 1660.27L445.3 1690.27L393.34 1660.27L393.34 1600.27zM497.27 1660.27L549.23 1690.27L549.23 1750.27L497.27 1780.27L445.3 1750.27L445.3 1690.27zM445.3 2290.27L497.27 2320.27L497.27 2380.27L445.3 2410.27L393.34 2380.27L393.34 2320.27zM497.27 2380.27L549.23 2410.27L549.23 2470.27L497.27 2500.27L445.3 2470.27L445.3 2410.27zM497.27 2560.27L549.23 2590.27L549.23 2650.27L497.27 2680.27L445.3 2650.27L445.3 2590.27zM445.3 2830.27L497.27 2860.27L497.27 2920.27L445.3 2950.27L393.34 2920.27L393.34 2860.27zM549.23 -49.73L601.19 -19.73L601.19 40.27L549.23 70.27L497.27 40.27L497.27 -19.73zM601.19 220.27L653.16 250.27L653.16 310.27L601.19 340.27L549.23 310.27L549.23 250.27zM549.23 490.27L601.19 520.27L601.19 580.27L549.23 610.27L497.27 580.27L497.27 520.27zM601.19 760.27L653.16 790.27L653.16 850.27L601.19 880.27L549.23 850.27L549.23 790.27zM549.23 1210.27L601.19 1240.27L601.19 1300.27L549.23 1330.27L497.27 1300.27L497.27 1240.27zM601.19 1300.27L653.16 1330.27L653.16 1390.27L601.19 1420.27L549.23 1390.27L549.23 1330.27zM601.19 1480.27L653.16 1510.27L653.16 1570.27L601.19 1600.27L549.23 1570.27L549.23 1510.27zM601.19 1660.27L653.16 1690.27L653.16 1750.27L601.19 1780.27L549.23 1750.27L549.23 1690.27zM549.23 1750.27L601.19 1780.27L601.19 1840.27L549.23 1870.27L497.27 1840.27L497.27 1780.27zM549.23 2470.27L601.19 2500.27L601.19 2560.27L549.23 2590.27L497.27 2560.27L497.27 2500.27zM549.23 2650.27L601.19 2680.27L601.19 2740.27L549.23 2770.27L497.27 2740.27L497.27 2680.27zM601.19 2920.27L653.16 2950.27L653.16 3010.27L601.19 3040.27L549.23 3010.27L549.23 2950.27zM653.16 130.27L705.12 160.27L705.12 220.27L653.16 250.27L601.19 220.27L601.19 160.27zM705.12 220.27L757.08 250.27L757.08 310.27L705.12 340.27L653.16 310.27L653.16 250.27zM705.12 400.27L757.08 430.27L757.08 490.27L705.12 520.27L653.16 490.27L653.16 430.27zM653.16 850.27L705.12 880.27L705.12 940.27L653.16 970.27L601.19 940.27L601.19 880.27zM653.16 1030.27L705.12 1060.27L705.12 1120.27L653.16 1150.27L601.19 1120.27L601.19 1060.27zM705.12 1120.27L757.08 1150.27L757.08 1210.27L705.12 1240.27L653.16 1210.27L653.16 1150.27zM705.12 1300.27L757.08 1330.27L757.08 1390.27L705.12 1420.27L653.16 1390.27L653.16 1330.27zM653.16 1390.27L705.12 1420.27L705.12 1480.27L653.16 1510.27L601.19 1480.27L601.19 1420.27zM705.12 1480.27L757.08 1510.27L757.08 1570.27L705.12 1600.27L653.16 1570.27L653.16 1510.27zM653.16 1750.27L705.12 1780.27L705.12 1840.27L653.16 1870.27L601.19 1840.27L601.19 1780.27zM653.16 2110.27L705.12 2140.27L705.12 2200.27L653.16 2230.27L601.19 2200.27L601.19 2140.27zM653.16 2290.27L705.12 2320.27L705.12 2380.27L653.16 2410.27L601.19 2380.27L601.19 2320.27zM705.12 2380.27L757.08 2410.27L757.08 2470.27L705.12 2500.27L653.16 2470.27L653.16 2410.27zM653.16 2650.27L705.12 2680.27L705.12 2740.27L653.16 2770.27L601.19 2740.27L601.19 2680.27zM705.12 2740.27L757.08 2770.27L757.08 2830.27L705.12 2860.27L653.16 2830.27L653.16 2770.27zM653.16 2830.27L705.12 2860.27L705.12 2920.27L653.16 2950.27L601.19 2920.27L601.19 2860.27zM809.04 40.27L861.01 70.27L861.01 130.27L809.04 160.27L757.08 130.27L757.08 70.27zM757.08 490.27L809.04 520.27L809.04 580.27L757.08 610.27L705.12 580.27L705.12 520.27zM809.04 580.27L861.01 610.27L861.01 670.27L809.04 700.27L757.08 670.27L757.08 610.27zM757.08 670.27L809.04 700.27L809.04 760.27L757.08 790.27L705.12 760.27L705.12 700.27zM809.04 760.27L861.01 790.27L861.01 850.27L809.04 880.27L757.08 850.27L757.08 790.27zM809.04 940.27L861.01 970.27L861.01 1030.27L809.04 1060.27L757.08 1030.27L757.08 970.27zM757.08 1030.27L809.04 1060.27L809.04 1120.27L757.08 1150.27L705.12 1120.27L705.12 1060.27zM809.04 1120.27L861.01 1150.27L861.01 1210.27L809.04 1240.27L757.08 1210.27L757.08 1150.27zM757.08 1570.27L809.04 1600.27L809.04 1660.27L757.08 1690.27L705.12 1660.27L705.12 1600.27zM757.08 1930.27L809.04 1960.27L809.04 2020.27L757.08 2050.27L705.12 2020.27L705.12 1960.27zM809.04 2020.27L861.01 2050.27L861.01 2110.27L809.04 2140.27L757.08 2110.27L757.08 2050.27zM757.08 2110.27L809.04 2140.27L809.04 2200.27L757.08 2230.27L705.12 2200.27L705.12 2140.27zM757.08 2290.27L809.04 2320.27L809.04 2380.27L757.08 2410.27L705.12 2380.27L705.12 2320.27zM809.04 2560.27L861.01 2590.27L861.01 2650.27L809.04 2680.27L757.08 2650.27L757.08 2590.27zM912.97 400.27L964.93 430.27L964.93 490.27L912.97 520.27L861.01 490.27L861.01 430.27zM861.01 490.27L912.97 520.27L912.97 580.27L861.01 610.27L809.05 580.27L809.05 520.27zM912.97 940.27L964.93 970.27L964.93 1030.27L912.97 1060.27L861.01 1030.27L861.01 970.27zM912.97 2020.27L964.93 2050.27L964.93 2110.27L912.97 2140.27L861.01 2110.27L861.01 2050.27zM912.97 2200.27L964.93 2230.27L964.93 2290.27L912.97 2320.27L861.01 2290.27L861.01 2230.27zM861.01 2470.27L912.97 2500.27L912.97 2560.27L861.01 2590.27L809.05 2560.27L809.05 2500.27zM861.01 2650.27L912.97 2680.27L912.97 2740.27L861.01 2770.27L809.05 2740.27L809.05 2680.27zM912.97 2740.27L964.93 2770.27L964.93 2830.27L912.97 2860.27L861.01 2830.27L861.01 2770.27zM912.97 2920.27L964.93 2950.27L964.93 3010.27L912.97 3040.27L861.01 3010.27L861.01 2950.27zM964.93 -49.73L1016.9 -19.73L1016.9 40.27L964.93 70.27L912.97 40.27L912.97 -19.73zM1016.9 40.27L1068.86 70.27L1068.86 130.27L1016.9 160.27L964.93 130.27L964.93 70.27zM964.93 310.27L1016.9 340.27L1016.9 400.27L964.93 430.27L912.97 400.27L912.97 340.27zM964.93 490.27L1016.9 520.27L1016.9 580.27L964.93 610.27L912.97 580.27L912.97 520.27zM964.93 850.27L1016.9 880.27L1016.9 940.27L964.93 970.27L912.97 940.27L912.97 880.27zM964.93 1210.27L1016.9 1240.27L1016.9 1300.27L964.93 1330.27L912.97 1300.27L912.97 1240.27zM1016.9 1480.27L1068.86 1510.27L1068.86 1570.27L1016.9 1600.27L964.93 1570.27L964.93 1510.27zM964.93 1570.27L1016.9 1600.27L1016.9 1660.27L964.93 1690.27L912.97 1660.27L912.97 1600.27zM964.93 1930.27L1016.9 1960.27L1016.9 2020.27L964.93 2050.27L912.97 2020.27L912.97 1960.27zM1016.9 2200.27L1068.86 2230.27L1068.86 2290.27L1016.9 2320.27L964.93 2290.27L964.93 2230.27zM1016.9 2380.27L1068.86 2410.27L1068.86 2470.27L1016.9 2500.27L964.93 2470.27L964.93 2410.27zM964.93 2470.27L1016.9 2500.27L1016.9 2560.27L964.93 2590.27L912.97 2560.27L912.97 2500.27zM964.93 2650.27L1016.9 2680.27L1016.9 2740.27L964.93 2770.27L912.97 2740.27L912.97 2680.27zM1068.86 130.27L1120.82 160.27L1120.82 220.27L1068.86 250.27L1016.9 220.27L1016.9 160.27zM1068.86 310.27L1120.82 340.27L1120.82 400.27L1068.86 430.27L1016.9 400.27L1016.9 340.27zM1068.86 490.27L1120.82 520.27L1120.82 580.27L1068.86 610.27L1016.9 580.27L1016.9 520.27zM1068.86 850.27L1120.82 880.27L1120.82 940.27L1068.86 970.27L1016.9 940.27L1016.9 880.27zM1068.86 1210.27L1120.82 1240.27L1120.82 1300.27L1068.86 1330.27L1016.9 1300.27L1016.9 1240.27zM1068.86 1390.27L1120.82 1420.27L1120.82 1480.27L1068.86 1510.27L1016.9 1480.27L1016.9 1420.27zM1068.86 1750.27L1120.82 1780.27L1120.82 1840.27L1068.86 1870.27L1016.9 1840.27L1016.9 1780.27zM1120.82 2020.27L1172.79 2050.27L1172.79 2110.27L1120.82 2140.27L1068.86 2110.27L1068.86 2050.27zM1120.82 2200.27L1172.79 2230.27L1172.79 2290.27L1120.82 2320.27L1068.86 2290.27L1068.86 2230.27zM1120.82 2380.27L1172.79 2410.27L1172.79 2470.27L1120.82 2500.27L1068.86 2470.27L1068.86 2410.27zM1068.86 2470.27L1120.82 2500.27L1120.82 2560.27L1068.86 2590.27L1016.9 2560.27L1016.9 2500.27zM1120.82 2560.27L1172.79 2590.27L1172.79 2650.27L1120.82 2680.27L1068.86 2650.27L1068.86 2590.27zM1068.86 2830.27L1120.82 2860.27L1120.82 2920.27L1068.86 2950.27L1016.9 2920.27L1016.9 2860.27zM1224.75 40.27L1276.71 70.27L1276.71 130.27L1224.75 160.27L1172.79 130.27L1172.79 70.27zM1172.79 130.27L1224.75 160.27L1224.75 220.27L1172.79 250.27L1120.82 220.27L1120.82 160.27zM1224.75 220.27L1276.71 250.27L1276.71 310.27L1224.75 340.27L1172.79 310.27L1172.79 250.27zM1172.79 670.27L1224.75 700.27L1224.75 760.27L1172.79 790.27L1120.82 760.27L1120.82 700.27zM1172.79 850.27L1224.75 880.27L1224.75 940.27L1172.79 970.27L1120.82 940.27L1120.82 880.27zM1224.75 940.27L1276.71 970.27L1276.71 1030.27L1224.75 1060.27L1172.79 1030.27L1172.79 970.27zM1172.79 1030.27L1224.75 1060.27L1224.75 1120.27L1172.79 1150.27L1120.82 1120.27L1120.82 1060.27zM1224.75 1480.27L1276.71 1510.27L1276.71 1570.27L1224.75 1600.27L1172.79 1570.27L1172.79 1510.27zM1172.79 1570.27L1224.75 1600.27L1224.75 1660.27L1172.79 1690.27L1120.82 1660.27L1120.82 1600.27zM1224.75 1840.27L1276.71 1870.27L1276.71 1930.27L1224.75 1960.27L1172.79 1930.27L1172.79 1870.27zM1224.75 2200.27L1276.71 2230.27L1276.71 2290.27L1224.75 2320.27L1172.79 2290.27L1172.79 2230.27zM1224.75 2380.27L1276.71 2410.27L1276.71 2470.27L1224.75 2500.27L1172.79 2470.27L1172.79 2410.27zM1172.79 2650.27L1224.75 2680.27L1224.75 2740.27L1172.79 2770.27L1120.82 2740.27L1120.82 2680.27zM1224.75 2740.27L1276.71 2770.27L1276.71 2830.27L1224.75 2860.27L1172.79 2830.27L1172.79 2770.27zM1224.75 2920.27L1276.71 2950.27L1276.71 3010.27L1224.75 3040.27L1172.79 3010.27L1172.79 2950.27zM1328.67 40.27L1380.64 70.27L1380.64 130.27L1328.67 160.27L1276.71 130.27L1276.71 70.27zM1328.67 220.27L1380.64 250.27L1380.64 310.27L1328.67 340.27L1276.71 310.27L1276.71 250.27zM1276.71 310.27L1328.67 340.27L1328.67 400.27L1276.71 430.27L1224.75 400.27L1224.75 340.27zM1328.67 400.27L1380.64 430.27L1380.64 490.27L1328.67 520.27L1276.71 490.27L1276.71 430.27zM1276.71 490.27L1328.67 520.27L1328.67 580.27L1276.71 610.27L1224.75 580.27L1224.75 520.27zM1276.71 670.27L1328.67 700.27L1328.67 760.27L1276.71 790.27L1224.75 760.27L1224.75 700.27zM1276.71 1030.27L1328.67 1060.27L1328.67 1120.27L1276.71 1150.27L1224.75 1120.27L1224.75 1060.27zM1276.71 1210.27L1328.67 1240.27L1328.67 1300.27L1276.71 1330.27L1224.75 1300.27L1224.75 1240.27zM1276.71 1390.27L1328.67 1420.27L1328.67 1480.27L1276.71 1510.27L1224.75 1480.27L1224.75 1420.27zM1328.67 1480.27L1380.64 1510.27L1380.64 1570.27L1328.67 1600.27L1276.71 1570.27L1276.71 1510.27zM1276.71 1570.27L1328.67 1600.27L1328.67 1660.27L1276.71 1690.27L1224.75 1660.27L1224.75 1600.27zM1276.71 1750.27L1328.67 1780.27L1328.67 1840.27L1276.71 1870.27L1224.75 1840.27L1224.75 1780.27zM1328.67 2380.27L1380.64 2410.27L1380.64 2470.27L1328.67 2500.27L1276.71 2470.27L1276.71 2410.27zM1328.67 2560.27L1380.64 2590.27L1380.64 2650.27L1328.67 2680.27L1276.71 2650.27L1276.71 2590.27zM1432.6 400.27L1484.56 430.27L1484.56 490.27L1432.6 520.27L1380.64 490.27L1380.64 430.27zM1380.64 490.27L1432.6 520.27L1432.6 580.27L1380.64 610.27L1328.67 580.27L1328.67 520.27zM1380.64 850.27L1432.6 880.27L1432.6 940.27L1380.64 970.27L1328.67 940.27L1328.67 880.27zM1432.6 940.27L1484.56 970.27L1484.56 1030.27L1432.6 1060.27L1380.64 1030.27L1380.64 970.27zM1380.64 1030.27L1432.6 1060.27L1432.6 1120.27L1380.64 1150.27L1328.67 1120.27L1328.67 1060.27zM1432.6 1120.27L1484.56 1150.27L1484.56 1210.27L1432.6 1240.27L1380.64 1210.27L1380.64 1150.27zM1432.6 1300.27L1484.56 1330.27L1484.56 1390.27L1432.6 1420.27L1380.64 1390.27L1380.64 1330.27zM1380.64 1390.27L1432.6 1420.27L1432.6 1480.27L1380.64 1510.27L1328.67 1480.27L1328.67 1420.27zM1432.6 1480.27L1484.56 1510.27L1484.56 1570.27L1432.6 1600.27L1380.64 1570.27L1380.64 1510.27zM1432.6 1840.27L1484.56 1870.27L1484.56 1930.27L1432.6 1960.27L1380.64 1930.27L1380.64 1870.27zM1432.6 2020.27L1484.56 2050.27L1484.56 2110.27L1432.6 2140.27L1380.64 2110.27L1380.64 2050.27zM1380.64 2110.27L1432.6 2140.27L1432.6 2200.27L1380.64 2230.27L1328.67 2200.27L1328.67 2140.27zM1432.6 2380.27L1484.56 2410.27L1484.56 2470.27L1432.6 2500.27L1380.64 2470.27L1380.64 2410.27zM1380.64 2470.27L1432.6 2500.27L1432.6 2560.27L1380.64 2590.27L1328.67 2560.27L1328.67 2500.27zM1432.6 2740.27L1484.56 2770.27L1484.56 2830.27L1432.6 2860.27L1380.64 2830.27L1380.64 2770.27zM1380.64 2830.27L1432.6 2860.27L1432.6 2920.27L1380.64 2950.27L1328.67 2920.27L1328.67 2860.27z" stroke="rgba(6, 80, 156, 0.93)" stroke-width="2"></path></g><defs><mask id="SvgjsMask1491"><rect width="1440" height="3000" fill="#ffffff"></rect></mask></defs></svg>