<svg xmlns="http://www.w3.org/2000/svg" version="1.1" xmlns:xlink="http://www.w3.org/1999/xlink" xmlns:svgjs="http://svgjs.dev/svgjs" width="1440" height="3000" preserveAspectRatio="none" viewBox="0 0 1440 3000"><g mask="url(&quot;#SvgjsMask1494&quot;)" fill="none"><rect width="1440" height="3000" x="0" y="0" fill="#0e2a47"></rect><path d="M101.75 89.86L171.04 129.86L171.04 209.86L101.75 249.86L32.47 209.86L32.47 129.86zM101.75 1289.86L171.04 1329.86L171.04 1409.86L101.75 1449.86L32.47 1409.86L32.47 1329.86zM32.47 1409.86L101.75 1449.86L101.75 1529.86L32.47 1569.86L-36.81 1529.86L-36.81 1449.86zM240.32 89.86L309.61 129.86L309.61 209.86L240.32 249.86L171.04 209.86L171.04 129.86zM171.04 209.86L240.32 249.86L240.32 329.86L171.04 369.86L101.75 329.86L101.75 249.86zM171.04 449.86L240.32 489.86L240.32 569.86L171.04 609.86L101.75 569.86L101.75 489.86zM240.32 569.86L309.61 609.86L309.61 689.86L240.32 729.86L171.04 689.86L171.04 609.86zM171.04 1889.86L240.32 1929.86L240.32 2009.86L171.04 2049.86L101.75 2009.86L101.75 1929.86zM240.32 2489.86L309.61 2529.86L309.61 2609.86L240.32 2649.86L171.04 2609.86L171.04 2529.86zM309.61 1409.86L378.89 1449.86L378.89 1529.86L309.61 1569.86L240.32 1529.86L240.32 1449.86zM378.89 1529.86L448.17 1569.86L448.17 1649.86L378.89 1689.86L309.61 1649.86L309.61 1569.86zM378.89 2489.86L448.17 2529.86L448.17 2609.86L378.89 2649.86L309.61 2609.86L309.61 2529.86zM448.17 -30.14L517.46 9.86L517.46 89.86L448.17 129.86L378.89 89.86L378.89 9.86zM517.46 329.86L586.74 369.86L586.74 449.86L517.46 489.86L448.17 449.86L448.17 369.86zM448.17 1409.86L517.46 1449.86L517.46 1529.86L448.17 1569.86L378.89 1529.86L378.89 1449.86zM517.46 1529.86L586.74 1569.86L586.74 1649.86L517.46 1689.86L448.17 1649.86L448.17 1569.86zM586.74 -30.14L656.03 9.86L656.03 89.86L586.74 129.86L517.46 89.86L517.46 9.86zM656.03 569.86L725.31 609.86L725.31 689.86L656.03 729.86L586.74 689.86L586.74 609.86zM794.59 89.86L863.88 129.86L863.88 209.86L794.59 249.86L725.31 209.86L725.31 129.86zM725.31 1409.86L794.59 1449.86L794.59 1529.86L725.31 1569.86L656.03 1529.86L656.03 1449.86zM794.59 2969.86L863.88 3009.86L863.88 3089.86L794.59 3129.86L725.31 3089.86L725.31 3009.86zM863.88 -30.14L933.16 9.86L933.16 89.86L863.88 129.86L794.59 89.86L794.59 9.86zM933.16 89.86L1002.45 129.86L1002.45 209.86L933.16 249.86L863.88 209.86L863.88 129.86zM933.16 329.86L1002.45 369.86L1002.45 449.86L933.16 489.86L863.88 449.86L863.88 369.86zM863.88 689.86L933.16 729.86L933.16 809.86L863.88 849.86L794.59 809.86L794.59 729.86zM863.88 1409.86L933.16 1449.86L933.16 1529.86L863.88 1569.86L794.59 1529.86L794.59 1449.86zM863.88 1649.86L933.16 1689.86L933.16 1769.86L863.88 1809.86L794.59 1769.86L794.59 1689.86zM863.88 2369.86L933.16 2409.86L933.16 2489.86L863.88 2529.86L794.59 2489.86L794.59 2409.86zM1071.73 89.86L1141.01 129.86L1141.01 209.86L1071.73 249.86L1002.45 209.86L1002.45 129.86zM1002.45 449.86L1071.73 489.86L1071.73 569.86L1002.45 609.86L933.16 569.86L933.16 489.86zM1071.73 1529.86L1141.01 1569.86L1141.01 1649.86L1071.73 1689.86L1002.45 1649.86L1002.45 1569.86zM1002.45 2129.86L1071.73 2169.86L1071.73 2249.86L1002.45 2289.86L933.16 2249.86L933.16 2169.86zM1002.45 2609.86L1071.73 2649.86L1071.73 2729.86L1002.45 2769.86L933.16 2729.86L933.16 2649.86zM1071.73 2969.86L1141.01 3009.86L1141.01 3089.86L1071.73 3129.86L1002.45 3089.86L1002.45 3009.86zM1141.01 449.86L1210.3 489.86L1210.3 569.86L1141.01 609.86L1071.73 569.86L1071.73 489.86zM1210.3 809.86L1279.58 849.86L1279.58 929.86L1210.3 969.86L1141.01 929.86L1141.01 849.86zM1141.01 1169.86L1210.3 1209.86L1210.3 1289.86L1141.01 1329.86L1071.73 1289.86L1071.73 1209.86zM1210.3 2009.86L1279.58 2049.86L1279.58 2129.86L1210.3 2169.86L1141.01 2129.86L1141.01 2049.86zM1348.87 89.86L1418.15 129.86L1418.15 209.86L1348.87 249.86L1279.58 209.86L1279.58 129.86zM1279.58 1169.86L1348.87 1209.86L1348.87 1289.86L1279.58 1329.86L1210.3 1289.86L1210.3 1209.86zM1348.87 1289.86L1418.15 1329.86L1418.15 1409.86L1348.87 1449.86L1279.58 1409.86L1279.58 1329.86zM1279.58 1889.86L1348.87 1929.86L1348.87 2009.86L1279.58 2049.86L1210.3 2009.86L1210.3 1929.86zM1279.58 2129.86L1348.87 2169.86L1348.87 2249.86L1279.58 2289.86L1210.3 2249.86L1210.3 2169.86zM1279.58 2369.86L1348.87 2409.86L1348.87 2489.86L1279.58 2529.86L1210.3 2489.86L1210.3 2409.86zM1418.15 449.86L1487.43 489.86L1487.43 569.86L1418.15 609.86L1348.87 569.86L1348.87 489.86zM1418.15 929.86L1487.43 969.86L1487.43 1049.86L1418.15 1089.86L1348.87 1049.86L1348.87 969.86zM1418.15 2369.86L1487.43 2409.86L1487.43 2489.86L1418.15 2529.86L1348.87 2489.86L1348.87 2409.86z" stroke="#03305d" stroke-width="2"></path><path d="M93.75 89.86 a8 8 0 1 0 16 0 a8 8 0 1 0 -16 0zM163.04 129.86 a8 8 0 1 0 16 0 a8 8 0 1 0 -16 0zM163.04 209.86 a8 8 0 1 0 16 0 a8 8 0 1 0 -16 0zM93.75 249.86 a8 8 0 1 0 16 0 a8 8 0 1 0 -16 0zM24.47 209.86 a8 8 0 1 0 16 0 a8 8 0 1 0 -16 0zM24.47 129.86 a8 8 0 1 0 16 0 a8 8 0 1 0 -16 0zM93.75 1289.86 a8 8 0 1 0 16 0 a8 8 0 1 0 -16 0zM163.04 1329.86 a8 8 0 1 0 16 0 a8 8 0 1 0 -16 0zM163.04 1409.86 a8 8 0 1 0 16 0 a8 8 0 1 0 -16 0zM93.75 1449.86 a8 8 0 1 0 16 0 a8 8 0 1 0 -16 0zM24.47 1409.86 a8 8 0 1 0 16 0 a8 8 0 1 0 -16 0zM24.47 1329.86 a8 8 0 1 0 16 0 a8 8 0 1 0 -16 0zM93.75 1529.86 a8 8 0 1 0 16 0 a8 8 0 1 0 -16 0zM24.47 1569.86 a8 8 0 1 0 16 0 a8 8 0 1 0 -16 0zM-44.81 1529.86 a8 8 0 1 0 16 0 a8 8 0 1 0 -16 0zM-44.81 1449.86 a8 8 0 1 0 16 0 a8 8 0 1 0 -16 0zM232.32 89.86 a8 8 0 1 0 16 0 a8 8 0 1 0 -16 0zM301.61 129.86 a8 8 0 1 0 16 0 a8 8 0 1 0 -16 0zM301.61 209.86 a8 8 0 1 0 16 0 a8 8 0 1 0 -16 0zM232.32 249.86 a8 8 0 1 0 16 0 a8 8 0 1 0 -16 0zM232.32 329.86 a8 8 0 1 0 16 0 a8 8 0 1 0 -16 0zM163.04 369.86 a8 8 0 1 0 16 0 a8 8 0 1 0 -16 0zM93.75 329.86 a8 8 0 1 0 16 0 a8 8 0 1 0 -16 0zM163.04 449.86 a8 8 0 1 0 16 0 a8 8 0 1 0 -16 0zM232.32 489.86 a8 8 0 1 0 16 0 a8 8 0 1 0 -16 0zM232.32 569.86 a8 8 0 1 0 16 0 a8 8 0 1 0 -16 0zM163.04 609.86 a8 8 0 1 0 16 0 a8 8 0 1 0 -16 0zM93.75 569.86 a8 8 0 1 0 16 0 a8 8 0 1 0 -16 0zM93.75 489.86 a8 8 0 1 0 16 0 a8 8 0 1 0 -16 0zM301.61 609.86 a8 8 0 1 0 16 0 a8 8 0 1 0 -16 0zM301.61 689.86 a8 8 0 1 0 16 0 a8 8 0 1 0 -16 0zM232.32 729.86 a8 8 0 1 0 16 0 a8 8 0 1 0 -16 0zM163.04 689.86 a8 8 0 1 0 16 0 a8 8 0 1 0 -16 0zM163.04 1889.86 a8 8 0 1 0 16 0 a8 8 0 1 0 -16 0zM232.32 1929.86 a8 8 0 1 0 16 0 a8 8 0 1 0 -16 0zM232.32 2009.86 a8 8 0 1 0 16 0 a8 8 0 1 0 -16 0zM163.04 2049.86 a8 8 0 1 0 16 0 a8 8 0 1 0 -16 0zM93.75 2009.86 a8 8 0 1 0 16 0 a8 8 0 1 0 -16 0zM93.75 1929.86 a8 8 0 1 0 16 0 a8 8 0 1 0 -16 0zM232.32 2489.86 a8 8 0 1 0 16 0 a8 8 0 1 0 -16 0zM301.61 2529.86 a8 8 0 1 0 16 0 a8 8 0 1 0 -16 0zM301.61 2609.86 a8 8 0 1 0 16 0 a8 8 0 1 0 -16 0zM232.32 2649.86 a8 8 0 1 0 16 0 a8 8 0 1 0 -16 0zM163.04 2609.86 a8 8 0 1 0 16 0 a8 8 0 1 0 -16 0zM163.04 2529.86 a8 8 0 1 0 16 0 a8 8 0 1 0 -16 0zM301.61 1409.86 a8 8 0 1 0 16 0 a8 8 0 1 0 -16 0zM370.89 1449.86 a8 8 0 1 0 16 0 a8 8 0 1 0 -16 0zM370.89 1529.86 a8 8 0 1 0 16 0 a8 8 0 1 0 -16 0zM301.61 1569.86 a8 8 0 1 0 16 0 a8 8 0 1 0 -16 0zM232.32 1529.86 a8 8 0 1 0 16 0 a8 8 0 1 0 -16 0zM232.32 1449.86 a8 8 0 1 0 16 0 a8 8 0 1 0 -16 0zM440.17 1569.86 a8 8 0 1 0 16 0 a8 8 0 1 0 -16 0zM440.17 1649.86 a8 8 0 1 0 16 0 a8 8 0 1 0 -16 0zM370.89 1689.86 a8 8 0 1 0 16 0 a8 8 0 1 0 -16 0zM301.61 1649.86 a8 8 0 1 0 16 0 a8 8 0 1 0 -16 0zM370.89 2489.86 a8 8 0 1 0 16 0 a8 8 0 1 0 -16 0zM440.17 2529.86 a8 8 0 1 0 16 0 a8 8 0 1 0 -16 0zM440.17 2609.86 a8 8 0 1 0 16 0 a8 8 0 1 0 -16 0zM370.89 2649.86 a8 8 0 1 0 16 0 a8 8 0 1 0 -16 0zM440.17 -30.14 a8 8 0 1 0 16 0 a8 8 0 1 0 -16 0zM509.46 9.86 a8 8 0 1 0 16 0 a8 8 0 1 0 -16 0zM509.46 89.86 a8 8 0 1 0 16 0 a8 8 0 1 0 -16 0zM440.17 129.86 a8 8 0 1 0 16 0 a8 8 0 1 0 -16 0zM370.89 89.86 a8 8 0 1 0 16 0 a8 8 0 1 0 -16 0zM370.89 9.86 a8 8 0 1 0 16 0 a8 8 0 1 0 -16 0zM509.46 329.86 a8 8 0 1 0 16 0 a8 8 0 1 0 -16 0zM578.74 369.86 a8 8 0 1 0 16 0 a8 8 0 1 0 -16 0zM578.74 449.86 a8 8 0 1 0 16 0 a8 8 0 1 0 -16 0zM509.46 489.86 a8 8 0 1 0 16 0 a8 8 0 1 0 -16 0zM440.17 449.86 a8 8 0 1 0 16 0 a8 8 0 1 0 -16 0zM440.17 369.86 a8 8 0 1 0 16 0 a8 8 0 1 0 -16 0zM440.17 1409.86 a8 8 0 1 0 16 0 a8 8 0 1 0 -16 0zM509.46 1449.86 a8 8 0 1 0 16 0 a8 8 0 1 0 -16 0zM509.46 1529.86 a8 8 0 1 0 16 0 a8 8 0 1 0 -16 0zM578.74 1569.86 a8 8 0 1 0 16 0 a8 8 0 1 0 -16 0zM578.74 1649.86 a8 8 0 1 0 16 0 a8 8 0 1 0 -16 0zM509.46 1689.86 a8 8 0 1 0 16 0 a8 8 0 1 0 -16 0zM578.74 -30.14 a8 8 0 1 0 16 0 a8 8 0 1 0 -16 0zM648.03 9.86 a8 8 0 1 0 16 0 a8 8 0 1 0 -16 0zM648.03 89.86 a8 8 0 1 0 16 0 a8 8 0 1 0 -16 0zM578.74 129.86 a8 8 0 1 0 16 0 a8 8 0 1 0 -16 0zM648.03 569.86 a8 8 0 1 0 16 0 a8 8 0 1 0 -16 0zM717.31 609.86 a8 8 0 1 0 16 0 a8 8 0 1 0 -16 0zM717.31 689.86 a8 8 0 1 0 16 0 a8 8 0 1 0 -16 0zM648.03 729.86 a8 8 0 1 0 16 0 a8 8 0 1 0 -16 0zM578.74 689.86 a8 8 0 1 0 16 0 a8 8 0 1 0 -16 0zM578.74 609.86 a8 8 0 1 0 16 0 a8 8 0 1 0 -16 0zM786.59 89.86 a8 8 0 1 0 16 0 a8 8 0 1 0 -16 0zM855.88 129.86 a8 8 0 1 0 16 0 a8 8 0 1 0 -16 0zM855.88 209.86 a8 8 0 1 0 16 0 a8 8 0 1 0 -16 0zM786.59 249.86 a8 8 0 1 0 16 0 a8 8 0 1 0 -16 0zM717.31 209.86 a8 8 0 1 0 16 0 a8 8 0 1 0 -16 0zM717.31 129.86 a8 8 0 1 0 16 0 a8 8 0 1 0 -16 0zM717.31 1409.86 a8 8 0 1 0 16 0 a8 8 0 1 0 -16 0zM786.59 1449.86 a8 8 0 1 0 16 0 a8 8 0 1 0 -16 0zM786.59 1529.86 a8 8 0 1 0 16 0 a8 8 0 1 0 -16 0zM717.31 1569.86 a8 8 0 1 0 16 0 a8 8 0 1 0 -16 0zM648.03 1529.86 a8 8 0 1 0 16 0 a8 8 0 1 0 -16 0zM648.03 1449.86 a8 8 0 1 0 16 0 a8 8 0 1 0 -16 0zM786.59 2969.86 a8 8 0 1 0 16 0 a8 8 0 1 0 -16 0zM855.88 3009.86 a8 8 0 1 0 16 0 a8 8 0 1 0 -16 0zM855.88 3089.86 a8 8 0 1 0 16 0 a8 8 0 1 0 -16 0zM786.59 3129.86 a8 8 0 1 0 16 0 a8 8 0 1 0 -16 0zM717.31 3089.86 a8 8 0 1 0 16 0 a8 8 0 1 0 -16 0zM717.31 3009.86 a8 8 0 1 0 16 0 a8 8 0 1 0 -16 0zM855.88 -30.14 a8 8 0 1 0 16 0 a8 8 0 1 0 -16 0zM925.16 9.86 a8 8 0 1 0 16 0 a8 8 0 1 0 -16 0zM925.16 89.86 a8 8 0 1 0 16 0 a8 8 0 1 0 -16 0zM786.59 9.86 a8 8 0 1 0 16 0 a8 8 0 1 0 -16 0zM994.45 129.86 a8 8 0 1 0 16 0 a8 8 0 1 0 -16 0zM994.45 209.86 a8 8 0 1 0 16 0 a8 8 0 1 0 -16 0zM925.16 249.86 a8 8 0 1 0 16 0 a8 8 0 1 0 -16 0zM925.16 329.86 a8 8 0 1 0 16 0 a8 8 0 1 0 -16 0zM994.45 369.86 a8 8 0 1 0 16 0 a8 8 0 1 0 -16 0zM994.45 449.86 a8 8 0 1 0 16 0 a8 8 0 1 0 -16 0zM925.16 489.86 a8 8 0 1 0 16 0 a8 8 0 1 0 -16 0zM855.88 449.86 a8 8 0 1 0 16 0 a8 8 0 1 0 -16 0zM855.88 369.86 a8 8 0 1 0 16 0 a8 8 0 1 0 -16 0zM855.88 689.86 a8 8 0 1 0 16 0 a8 8 0 1 0 -16 0zM925.16 729.86 a8 8 0 1 0 16 0 a8 8 0 1 0 -16 0zM925.16 809.86 a8 8 0 1 0 16 0 a8 8 0 1 0 -16 0zM855.88 849.86 a8 8 0 1 0 16 0 a8 8 0 1 0 -16 0zM786.59 809.86 a8 8 0 1 0 16 0 a8 8 0 1 0 -16 0zM786.59 729.86 a8 8 0 1 0 16 0 a8 8 0 1 0 -16 0zM855.88 1409.86 a8 8 0 1 0 16 0 a8 8 0 1 0 -16 0zM925.16 1449.86 a8 8 0 1 0 16 0 a8 8 0 1 0 -16 0zM925.16 1529.86 a8 8 0 1 0 16 0 a8 8 0 1 0 -16 0zM855.88 1569.86 a8 8 0 1 0 16 0 a8 8 0 1 0 -16 0zM855.88 1649.86 a8 8 0 1 0 16 0 a8 8 0 1 0 -16 0zM925.16 1689.86 a8 8 0 1 0 16 0 a8 8 0 1 0 -16 0zM925.16 1769.86 a8 8 0 1 0 16 0 a8 8 0 1 0 -16 0zM855.88 1809.86 a8 8 0 1 0 16 0 a8 8 0 1 0 -16 0zM786.59 1769.86 a8 8 0 1 0 16 0 a8 8 0 1 0 -16 0zM786.59 1689.86 a8 8 0 1 0 16 0 a8 8 0 1 0 -16 0zM855.88 2369.86 a8 8 0 1 0 16 0 a8 8 0 1 0 -16 0zM925.16 2409.86 a8 8 0 1 0 16 0 a8 8 0 1 0 -16 0zM925.16 2489.86 a8 8 0 1 0 16 0 a8 8 0 1 0 -16 0zM855.88 2529.86 a8 8 0 1 0 16 0 a8 8 0 1 0 -16 0zM786.59 2489.86 a8 8 0 1 0 16 0 a8 8 0 1 0 -16 0zM786.59 2409.86 a8 8 0 1 0 16 0 a8 8 0 1 0 -16 0zM1063.73 89.86 a8 8 0 1 0 16 0 a8 8 0 1 0 -16 0zM1133.01 129.86 a8 8 0 1 0 16 0 a8 8 0 1 0 -16 0zM1133.01 209.86 a8 8 0 1 0 16 0 a8 8 0 1 0 -16 0zM1063.73 249.86 a8 8 0 1 0 16 0 a8 8 0 1 0 -16 0zM1063.73 489.86 a8 8 0 1 0 16 0 a8 8 0 1 0 -16 0zM1063.73 569.86 a8 8 0 1 0 16 0 a8 8 0 1 0 -16 0zM994.45 609.86 a8 8 0 1 0 16 0 a8 8 0 1 0 -16 0zM925.16 569.86 a8 8 0 1 0 16 0 a8 8 0 1 0 -16 0zM1063.73 1529.86 a8 8 0 1 0 16 0 a8 8 0 1 0 -16 0zM1133.01 1569.86 a8 8 0 1 0 16 0 a8 8 0 1 0 -16 0zM1133.01 1649.86 a8 8 0 1 0 16 0 a8 8 0 1 0 -16 0zM1063.73 1689.86 a8 8 0 1 0 16 0 a8 8 0 1 0 -16 0zM994.45 1649.86 a8 8 0 1 0 16 0 a8 8 0 1 0 -16 0zM994.45 1569.86 a8 8 0 1 0 16 0 a8 8 0 1 0 -16 0zM994.45 2129.86 a8 8 0 1 0 16 0 a8 8 0 1 0 -16 0zM1063.73 2169.86 a8 8 0 1 0 16 0 a8 8 0 1 0 -16 0zM1063.73 2249.86 a8 8 0 1 0 16 0 a8 8 0 1 0 -16 0zM994.45 2289.86 a8 8 0 1 0 16 0 a8 8 0 1 0 -16 0zM925.16 2249.86 a8 8 0 1 0 16 0 a8 8 0 1 0 -16 0zM925.16 2169.86 a8 8 0 1 0 16 0 a8 8 0 1 0 -16 0zM994.45 2609.86 a8 8 0 1 0 16 0 a8 8 0 1 0 -16 0zM1063.73 2649.86 a8 8 0 1 0 16 0 a8 8 0 1 0 -16 0zM1063.73 2729.86 a8 8 0 1 0 16 0 a8 8 0 1 0 -16 0zM994.45 2769.86 a8 8 0 1 0 16 0 a8 8 0 1 0 -16 0zM925.16 2729.86 a8 8 0 1 0 16 0 a8 8 0 1 0 -16 0zM925.16 2649.86 a8 8 0 1 0 16 0 a8 8 0 1 0 -16 0zM1063.73 2969.86 a8 8 0 1 0 16 0 a8 8 0 1 0 -16 0zM1133.01 3009.86 a8 8 0 1 0 16 0 a8 8 0 1 0 -16 0zM1133.01 3089.86 a8 8 0 1 0 16 0 a8 8 0 1 0 -16 0zM1063.73 3129.86 a8 8 0 1 0 16 0 a8 8 0 1 0 -16 0zM994.45 3089.86 a8 8 0 1 0 16 0 a8 8 0 1 0 -16 0zM994.45 3009.86 a8 8 0 1 0 16 0 a8 8 0 1 0 -16 0zM1133.01 449.86 a8 8 0 1 0 16 0 a8 8 0 1 0 -16 0zM1202.3 489.86 a8 8 0 1 0 16 0 a8 8 0 1 0 -16 0zM1202.3 569.86 a8 8 0 1 0 16 0 a8 8 0 1 0 -16 0zM1133.01 609.86 a8 8 0 1 0 16 0 a8 8 0 1 0 -16 0zM1202.3 809.86 a8 8 0 1 0 16 0 a8 8 0 1 0 -16 0zM1271.58 849.86 a8 8 0 1 0 16 0 a8 8 0 1 0 -16 0zM1271.58 929.86 a8 8 0 1 0 16 0 a8 8 0 1 0 -16 0zM1202.3 969.86 a8 8 0 1 0 16 0 a8 8 0 1 0 -16 0zM1133.01 929.86 a8 8 0 1 0 16 0 a8 8 0 1 0 -16 0zM1133.01 849.86 a8 8 0 1 0 16 0 a8 8 0 1 0 -16 0zM1133.01 1169.86 a8 8 0 1 0 16 0 a8 8 0 1 0 -16 0zM1202.3 1209.86 a8 8 0 1 0 16 0 a8 8 0 1 0 -16 0zM1202.3 1289.86 a8 8 0 1 0 16 0 a8 8 0 1 0 -16 0zM1133.01 1329.86 a8 8 0 1 0 16 0 a8 8 0 1 0 -16 0zM1063.73 1289.86 a8 8 0 1 0 16 0 a8 8 0 1 0 -16 0zM1063.73 1209.86 a8 8 0 1 0 16 0 a8 8 0 1 0 -16 0zM1202.3 2009.86 a8 8 0 1 0 16 0 a8 8 0 1 0 -16 0zM1271.58 2049.86 a8 8 0 1 0 16 0 a8 8 0 1 0 -16 0zM1271.58 2129.86 a8 8 0 1 0 16 0 a8 8 0 1 0 -16 0zM1202.3 2169.86 a8 8 0 1 0 16 0 a8 8 0 1 0 -16 0zM1133.01 2129.86 a8 8 0 1 0 16 0 a8 8 0 1 0 -16 0zM1133.01 2049.86 a8 8 0 1 0 16 0 a8 8 0 1 0 -16 0zM1340.87 89.86 a8 8 0 1 0 16 0 a8 8 0 1 0 -16 0zM1410.15 129.86 a8 8 0 1 0 16 0 a8 8 0 1 0 -16 0zM1410.15 209.86 a8 8 0 1 0 16 0 a8 8 0 1 0 -16 0zM1340.87 249.86 a8 8 0 1 0 16 0 a8 8 0 1 0 -16 0zM1271.58 209.86 a8 8 0 1 0 16 0 a8 8 0 1 0 -16 0zM1271.58 129.86 a8 8 0 1 0 16 0 a8 8 0 1 0 -16 0zM1271.58 1169.86 a8 8 0 1 0 16 0 a8 8 0 1 0 -16 0zM1340.87 1209.86 a8 8 0 1 0 16 0 a8 8 0 1 0 -16 0zM1340.87 1289.86 a8 8 0 1 0 16 0 a8 8 0 1 0 -16 0zM1271.58 1329.86 a8 8 0 1 0 16 0 a8 8 0 1 0 -16 0zM1410.15 1329.86 a8 8 0 1 0 16 0 a8 8 0 1 0 -16 0zM1410.15 1409.86 a8 8 0 1 0 16 0 a8 8 0 1 0 -16 0zM1340.87 1449.86 a8 8 0 1 0 16 0 a8 8 0 1 0 -16 0zM1271.58 1409.86 a8 8 0 1 0 16 0 a8 8 0 1 0 -16 0zM1271.58 1889.86 a8 8 0 1 0 16 0 a8 8 0 1 0 -16 0zM1340.87 1929.86 a8 8 0 1 0 16 0 a8 8 0 1 0 -16 0zM1340.87 2009.86 a8 8 0 1 0 16 0 a8 8 0 1 0 -16 0zM1202.3 1929.86 a8 8 0 1 0 16 0 a8 8 0 1 0 -16 0zM1340.87 2169.86 a8 8 0 1 0 16 0 a8 8 0 1 0 -16 0zM1340.87 2249.86 a8 8 0 1 0 16 0 a8 8 0 1 0 -16 0zM1271.58 2289.86 a8 8 0 1 0 16 0 a8 8 0 1 0 -16 0zM1202.3 2249.86 a8 8 0 1 0 16 0 a8 8 0 1 0 -16 0zM1271.58 2369.86 a8 8 0 1 0 16 0 a8 8 0 1 0 -16 0zM1340.87 2409.86 a8 8 0 1 0 16 0 a8 8 0 1 0 -16 0zM1340.87 2489.86 a8 8 0 1 0 16 0 a8 8 0 1 0 -16 0zM1271.58 2529.86 a8 8 0 1 0 16 0 a8 8 0 1 0 -16 0zM1202.3 2489.86 a8 8 0 1 0 16 0 a8 8 0 1 0 -16 0zM1202.3 2409.86 a8 8 0 1 0 16 0 a8 8 0 1 0 -16 0zM1410.15 449.86 a8 8 0 1 0 16 0 a8 8 0 1 0 -16 0zM1479.43 489.86 a8 8 0 1 0 16 0 a8 8 0 1 0 -16 0zM1479.43 569.86 a8 8 0 1 0 16 0 a8 8 0 1 0 -16 0zM1410.15 609.86 a8 8 0 1 0 16 0 a8 8 0 1 0 -16 0zM1340.87 569.86 a8 8 0 1 0 16 0 a8 8 0 1 0 -16 0zM1340.87 489.86 a8 8 0 1 0 16 0 a8 8 0 1 0 -16 0zM1410.15 929.86 a8 8 0 1 0 16 0 a8 8 0 1 0 -16 0zM1479.43 969.86 a8 8 0 1 0 16 0 a8 8 0 1 0 -16 0zM1479.43 1049.86 a8 8 0 1 0 16 0 a8 8 0 1 0 -16 0zM1410.15 1089.86 a8 8 0 1 0 16 0 a8 8 0 1 0 -16 0zM1340.87 1049.86 a8 8 0 1 0 16 0 a8 8 0 1 0 -16 0zM1340.87 969.86 a8 8 0 1 0 16 0 a8 8 0 1 0 -16 0zM1410.15 2369.86 a8 8 0 1 0 16 0 a8 8 0 1 0 -16 0zM1479.43 2409.86 a8 8 0 1 0 16 0 a8 8 0 1 0 -16 0zM1479.43 2489.86 a8 8 0 1 0 16 0 a8 8 0 1 0 -16 0zM1410.15 2529.86 a8 8 0 1 0 16 0 a8 8 0 1 0 -16 0z" fill="#03305d"></path><path d="M86.15 236.91L138.12 266.91L138.12 326.91L86.15 356.91L34.19 326.91L34.19 266.91zM86.15 1316.91L138.12 1346.91L138.12 1406.91L86.15 1436.91L34.19 1406.91L34.19 1346.91zM86.15 1676.91L138.12 1706.91L138.12 1766.91L86.15 1796.91L34.19 1766.91L34.19 1706.91zM34.19 1766.91L86.15 1796.91L86.15 1856.91L34.19 1886.91L-17.77 1856.91L-17.77 1796.91zM86.15 2216.91L138.12 2246.91L138.12 2306.91L86.15 2336.91L34.19 2306.91L34.19 2246.91zM86.15 2576.91L138.12 2606.91L138.12 2666.91L86.15 2696.91L34.19 2666.91L34.19 2606.91zM190.08 56.91L242.04 86.91L242.04 146.91L190.08 176.91L138.12 146.91L138.12 86.91zM190.08 416.91L242.04 446.91L242.04 506.91L190.08 536.91L138.12 506.91L138.12 446.91zM190.08 956.91L242.04 986.91L242.04 1046.91L190.08 1076.91L138.12 1046.91L138.12 986.91zM138.12 1226.91L190.08 1256.91L190.08 1316.91L138.12 1346.91L86.15 1316.91L86.15 1256.91zM190.08 1676.91L242.04 1706.91L242.04 1766.91L190.08 1796.91L138.12 1766.91L138.12 1706.91zM138.12 1946.91L190.08 1976.91L190.08 2036.91L138.12 2066.91L86.15 2036.91L86.15 1976.91zM190.08 2036.91L242.04 2066.91L242.04 2126.91L190.08 2156.91L138.12 2126.91L138.12 2066.91zM190.08 2576.91L242.04 2606.91L242.04 2666.91L190.08 2696.91L138.12 2666.91L138.12 2606.91zM138.12 2666.91L190.08 2696.91L190.08 2756.91L138.12 2786.91L86.15 2756.91L86.15 2696.91zM190.08 2756.91L242.04 2786.91L242.04 2846.91L190.08 2876.91L138.12 2846.91L138.12 2786.91zM138.12 2846.91L190.08 2876.91L190.08 2936.91L138.12 2966.91L86.15 2936.91L86.15 2876.91zM242.04 -33.09L294 -3.09L294 56.91L242.04 86.91L190.08 56.91L190.08 -3.09zM294 596.91L345.97 626.91L345.97 686.91L294 716.91L242.04 686.91L242.04 626.91zM242.04 686.91L294 716.91L294 776.91L242.04 806.91L190.08 776.91L190.08 716.91zM294 776.91L345.97 806.91L345.97 866.91L294 896.91L242.04 866.91L242.04 806.91zM294 956.91L345.97 986.91L345.97 1046.91L294 1076.91L242.04 1046.91L242.04 986.91zM242.04 1046.91L294 1076.91L294 1136.91L242.04 1166.91L190.08 1136.91L190.08 1076.91zM242.04 1406.91L294 1436.91L294 1496.91L242.04 1526.91L190.08 1496.91L190.08 1436.91zM242.04 1766.91L294 1796.91L294 1856.91L242.04 1886.91L190.08 1856.91L190.08 1796.91zM242.04 1946.91L294 1976.91L294 2036.91L242.04 2066.91L190.08 2036.91L190.08 1976.91zM242.04 2486.91L294 2516.91L294 2576.91L242.04 2606.91L190.08 2576.91L190.08 2516.91zM242.04 2666.91L294 2696.91L294 2756.91L242.04 2786.91L190.08 2756.91L190.08 2696.91zM294 2756.91L345.97 2786.91L345.97 2846.91L294 2876.91L242.04 2846.91L242.04 2786.91zM397.93 56.91L449.89 86.91L449.89 146.91L397.93 176.91L345.97 146.91L345.97 86.91zM345.97 146.91L397.93 176.91L397.93 236.91L345.97 266.91L294 236.91L294 176.91zM345.97 326.91L397.93 356.91L397.93 416.91L345.97 446.91L294 416.91L294 356.91zM397.93 416.91L449.89 446.91L449.89 506.91L397.93 536.91L345.97 506.91L345.97 446.91zM397.93 776.91L449.89 806.91L449.89 866.91L397.93 896.91L345.97 866.91L345.97 806.91zM345.97 866.91L397.93 896.91L397.93 956.91L345.97 986.91L294 956.91L294 896.91zM345.97 1046.91L397.93 1076.91L397.93 1136.91L345.97 1166.91L294 1136.91L294 1076.91zM345.97 1766.91L397.93 1796.91L397.93 1856.91L345.97 1886.91L294 1856.91L294 1796.91zM397.93 2036.91L449.89 2066.91L449.89 2126.91L397.93 2156.91L345.97 2126.91L345.97 2066.91zM397.93 2216.91L449.89 2246.91L449.89 2306.91L397.93 2336.91L345.97 2306.91L345.97 2246.91zM397.93 2396.91L449.89 2426.91L449.89 2486.91L397.93 2516.91L345.97 2486.91L345.97 2426.91zM345.97 2666.91L397.93 2696.91L397.93 2756.91L345.97 2786.91L294 2756.91L294 2696.91zM397.93 2756.91L449.89 2786.91L449.89 2846.91L397.93 2876.91L345.97 2846.91L345.97 2786.91zM345.97 2846.91L397.93 2876.91L397.93 2936.91L345.97 2966.91L294 2936.91L294 2876.91zM449.89 146.91L501.86 176.91L501.86 236.91L449.89 266.91L397.93 236.91L397.93 176.91zM449.89 506.91L501.86 536.91L501.86 596.91L449.89 626.91L397.93 596.91L397.93 536.91zM501.86 596.91L553.82 626.91L553.82 686.91L501.86 716.91L449.89 686.91L449.89 626.91zM501.86 956.91L553.82 986.91L553.82 1046.91L501.86 1076.91L449.89 1046.91L449.89 986.91zM501.86 1496.91L553.82 1526.91L553.82 1586.91L501.86 1616.91L449.89 1586.91L449.89 1526.91zM501.86 1676.91L553.82 1706.91L553.82 1766.91L501.86 1796.91L449.89 1766.91L449.89 1706.91zM449.89 1766.91L501.86 1796.91L501.86 1856.91L449.89 1886.91L397.93 1856.91L397.93 1796.91zM501.86 2216.91L553.82 2246.91L553.82 2306.91L501.86 2336.91L449.89 2306.91L449.89 2246.91zM449.89 2306.91L501.86 2336.91L501.86 2396.91L449.89 2426.91L397.93 2396.91L397.93 2336.91zM501.86 2756.91L553.82 2786.91L553.82 2846.91L501.86 2876.91L449.89 2846.91L449.89 2786.91zM501.86 2936.91L553.82 2966.91L553.82 3026.91L501.86 3056.91L449.89 3026.91L449.89 2966.91zM553.82 326.91L605.78 356.91L605.78 416.91L553.82 446.91L501.86 416.91L501.86 356.91zM605.78 596.91L657.75 626.91L657.75 686.91L605.78 716.91L553.82 686.91L553.82 626.91zM605.78 776.91L657.75 806.91L657.75 866.91L605.78 896.91L553.82 866.91L553.82 806.91zM553.82 1586.91L605.78 1616.91L605.78 1676.91L553.82 1706.91L501.86 1676.91L501.86 1616.91zM605.78 2576.91L657.75 2606.91L657.75 2666.91L605.78 2696.91L553.82 2666.91L553.82 2606.91zM553.82 2846.91L605.78 2876.91L605.78 2936.91L553.82 2966.91L501.86 2936.91L501.86 2876.91zM709.71 56.91L761.67 86.91L761.67 146.91L709.71 176.91L657.75 146.91L657.75 86.91zM657.75 506.91L709.71 536.91L709.71 596.91L657.75 626.91L605.78 596.91L605.78 536.91zM657.75 686.91L709.71 716.91L709.71 776.91L657.75 806.91L605.78 776.91L605.78 716.91zM657.75 1046.91L709.71 1076.91L709.71 1136.91L657.75 1166.91L605.78 1136.91L605.78 1076.91zM657.75 1226.91L709.71 1256.91L709.71 1316.91L657.75 1346.91L605.78 1316.91L605.78 1256.91zM709.71 1316.91L761.67 1346.91L761.67 1406.91L709.71 1436.91L657.75 1406.91L657.75 1346.91zM657.75 1766.91L709.71 1796.91L709.71 1856.91L657.75 1886.91L605.78 1856.91L605.78 1796.91zM657.75 2666.91L709.71 2696.91L709.71 2756.91L657.75 2786.91L605.78 2756.91L605.78 2696.91zM761.67 -33.09L813.63 -3.09L813.63 56.91L761.67 86.91L709.71 56.91L709.71 -3.09zM813.63 596.91L865.6 626.91L865.6 686.91L813.63 716.91L761.67 686.91L761.67 626.91zM813.63 956.91L865.6 986.91L865.6 1046.91L813.63 1076.91L761.67 1046.91L761.67 986.91zM813.63 1496.91L865.6 1526.91L865.6 1586.91L813.63 1616.91L761.67 1586.91L761.67 1526.91zM813.63 2216.91L865.6 2246.91L865.6 2306.91L813.63 2336.91L761.67 2306.91L761.67 2246.91zM761.67 2666.91L813.63 2696.91L813.63 2756.91L761.67 2786.91L709.71 2756.91L709.71 2696.91zM813.63 2756.91L865.6 2786.91L865.6 2846.91L813.63 2876.91L761.67 2846.91L761.67 2786.91zM761.67 2846.91L813.63 2876.91L813.63 2936.91L761.67 2966.91L709.71 2936.91L709.71 2876.91zM865.6 146.91L917.56 176.91L917.56 236.91L865.6 266.91L813.63 236.91L813.63 176.91zM917.56 236.91L969.52 266.91L969.52 326.91L917.56 356.91L865.6 326.91L865.6 266.91zM865.6 326.91L917.56 356.91L917.56 416.91L865.6 446.91L813.63 416.91L813.63 356.91zM865.6 1226.91L917.56 1256.91L917.56 1316.91L865.6 1346.91L813.63 1316.91L813.63 1256.91zM865.6 1406.91L917.56 1436.91L917.56 1496.91L865.6 1526.91L813.63 1496.91L813.63 1436.91zM865.6 1946.91L917.56 1976.91L917.56 2036.91L865.6 2066.91L813.63 2036.91L813.63 1976.91zM917.56 2756.91L969.52 2786.91L969.52 2846.91L917.56 2876.91L865.6 2846.91L865.6 2786.91zM865.6 2846.91L917.56 2876.91L917.56 2936.91L865.6 2966.91L813.63 2936.91L813.63 2876.91zM917.56 2936.91L969.52 2966.91L969.52 3026.91L917.56 3056.91L865.6 3026.91L865.6 2966.91zM1021.49 56.91L1073.45 86.91L1073.45 146.91L1021.49 176.91L969.52 146.91L969.52 86.91zM969.52 326.91L1021.49 356.91L1021.49 416.91L969.52 446.91L917.56 416.91L917.56 356.91zM969.52 1046.91L1021.49 1076.91L1021.49 1136.91L969.52 1166.91L917.56 1136.91L917.56 1076.91zM969.52 1226.91L1021.49 1256.91L1021.49 1316.91L969.52 1346.91L917.56 1316.91L917.56 1256.91zM969.52 1586.91L1021.49 1616.91L1021.49 1676.91L969.52 1706.91L917.56 1676.91L917.56 1616.91zM1021.49 1856.91L1073.45 1886.91L1073.45 1946.91L1021.49 1976.91L969.52 1946.91L969.52 1886.91zM1021.49 2036.91L1073.45 2066.91L1073.45 2126.91L1021.49 2156.91L969.52 2126.91L969.52 2066.91zM1021.49 2576.91L1073.45 2606.91L1073.45 2666.91L1021.49 2696.91L969.52 2666.91L969.52 2606.91zM1021.49 2936.91L1073.45 2966.91L1073.45 3026.91L1021.49 3056.91L969.52 3026.91L969.52 2966.91zM1125.41 56.91L1177.38 86.91L1177.38 146.91L1125.41 176.91L1073.45 146.91L1073.45 86.91zM1073.45 506.91L1125.41 536.91L1125.41 596.91L1073.45 626.91L1021.49 596.91L1021.49 536.91zM1073.45 686.91L1125.41 716.91L1125.41 776.91L1073.45 806.91L1021.49 776.91L1021.49 716.91zM1125.41 1136.91L1177.38 1166.91L1177.38 1226.91L1125.41 1256.91L1073.45 1226.91L1073.45 1166.91zM1073.45 1226.91L1125.41 1256.91L1125.41 1316.91L1073.45 1346.91L1021.49 1316.91L1021.49 1256.91zM1125.41 1316.91L1177.38 1346.91L1177.38 1406.91L1125.41 1436.91L1073.45 1406.91L1073.45 1346.91zM1125.41 1496.91L1177.38 1526.91L1177.38 1586.91L1125.41 1616.91L1073.45 1586.91L1073.45 1526.91zM1073.45 1586.91L1125.41 1616.91L1125.41 1676.91L1073.45 1706.91L1021.49 1676.91L1021.49 1616.91zM1125.41 1856.91L1177.38 1886.91L1177.38 1946.91L1125.41 1976.91L1073.45 1946.91L1073.45 1886.91zM1073.45 1946.91L1125.41 1976.91L1125.41 2036.91L1073.45 2066.91L1021.49 2036.91L1021.49 1976.91zM1073.45 2126.91L1125.41 2156.91L1125.41 2216.91L1073.45 2246.91L1021.49 2216.91L1021.49 2156.91zM1125.41 2936.91L1177.38 2966.91L1177.38 3026.91L1125.41 3056.91L1073.45 3026.91L1073.45 2966.91zM1177.38 146.91L1229.34 176.91L1229.34 236.91L1177.38 266.91L1125.41 236.91L1125.41 176.91zM1177.38 686.91L1229.34 716.91L1229.34 776.91L1177.38 806.91L1125.41 776.91L1125.41 716.91zM1229.34 1496.91L1281.3 1526.91L1281.3 1586.91L1229.34 1616.91L1177.38 1586.91L1177.38 1526.91zM1229.34 1676.91L1281.3 1706.91L1281.3 1766.91L1229.34 1796.91L1177.38 1766.91L1177.38 1706.91zM1177.38 1946.91L1229.34 1976.91L1229.34 2036.91L1177.38 2066.91L1125.41 2036.91L1125.41 1976.91zM1229.34 2036.91L1281.3 2066.91L1281.3 2126.91L1229.34 2156.91L1177.38 2126.91L1177.38 2066.91zM1177.38 2306.91L1229.34 2336.91L1229.34 2396.91L1177.38 2426.91L1125.41 2396.91L1125.41 2336.91zM1229.34 2576.91L1281.3 2606.91L1281.3 2666.91L1229.34 2696.91L1177.38 2666.91L1177.38 2606.91zM1177.38 2846.91L1229.34 2876.91L1229.34 2936.91L1177.38 2966.91L1125.41 2936.91L1125.41 2876.91zM1281.3 686.91L1333.27 716.91L1333.27 776.91L1281.3 806.91L1229.34 776.91L1229.34 716.91zM1333.27 956.91L1385.23 986.91L1385.23 1046.91L1333.27 1076.91L1281.3 1046.91L1281.3 986.91zM1333.27 1136.91L1385.23 1166.91L1385.23 1226.91L1333.27 1256.91L1281.3 1226.91L1281.3 1166.91zM1333.27 2036.91L1385.23 2066.91L1385.23 2126.91L1333.27 2156.91L1281.3 2126.91L1281.3 2066.91zM1333.27 2216.91L1385.23 2246.91L1385.23 2306.91L1333.27 2336.91L1281.3 2306.91L1281.3 2246.91zM1333.27 2576.91L1385.23 2606.91L1385.23 2666.91L1333.27 2696.91L1281.3 2666.91L1281.3 2606.91zM1281.3 2846.91L1333.27 2876.91L1333.27 2936.91L1281.3 2966.91L1229.34 2936.91L1229.34 2876.91zM1437.19 56.91L1489.15 86.91L1489.15 146.91L1437.19 176.91L1385.23 146.91L1385.23 86.91zM1385.23 326.91L1437.19 356.91L1437.19 416.91L1385.23 446.91L1333.27 416.91L1333.27 356.91zM1385.23 686.91L1437.19 716.91L1437.19 776.91L1385.23 806.91L1333.27 776.91L1333.27 716.91zM1437.19 776.91L1489.15 806.91L1489.15 866.91L1437.19 896.91L1385.23 866.91L1385.23 806.91zM1385.23 1586.91L1437.19 1616.91L1437.19 1676.91L1385.23 1706.91L1333.27 1676.91L1333.27 1616.91zM1437.19 2756.91L1489.15 2786.91L1489.15 2846.91L1437.19 2876.91L1385.23 2846.91L1385.23 2786.91zM1385.23 2846.91L1437.19 2876.91L1437.19 2936.91L1385.23 2966.91L1333.27 2936.91L1333.27 2876.91zM1437.19 2936.91L1489.15 2966.91L1489.15 3026.91L1437.19 3056.91L1385.23 3026.91L1385.23 2966.91z" stroke="rgba(6, 80, 156, 0.93)" stroke-width="2"></path></g><defs><mask id="SvgjsMask1494"><rect width="1440" height="3000" fill="#ffffff"></rect></mask></defs></svg>